<?xml version="1.0" encoding="UTF-8" standalone="no"?>
<!-- Created with Inkscape (http://www.inkscape.org/) -->

<svg
   width="105.60944mm"
   height="116.39021mm"
   viewBox="0 0 105.60944 116.39021"
   version="1.1"
   id="svg5"
   xml:space="preserve"
   inkscape:version="1.2.2 (b0a8486541, 2022-12-01)"
   sodipodi:docname="drawing.svg"
   xmlns:inkscape="http://www.inkscape.org/namespaces/inkscape"
   xmlns:sodipodi="http://sodipodi.sourceforge.net/DTD/sodipodi-0.dtd"
   xmlns="http://www.w3.org/2000/svg"
   xmlns:svg="http://www.w3.org/2000/svg"><sodipodi:namedview
     id="namedview7"
     pagecolor="#ffffff"
     bordercolor="#666666"
     borderopacity="1.0"
     inkscape:showpageshadow="2"
     inkscape:pageopacity="0"
     inkscape:pagecheckerboard="0"
     inkscape:deskcolor="#d1d1d1"
     inkscape:document-units="mm"
     showgrid="false"
     inkscape:zoom="0.79811562"
     inkscape:cx="7.5177078"
     inkscape:cy="345.18808"
     inkscape:window-width="1920"
     inkscape:window-height="1018"
     inkscape:window-x="0"
     inkscape:window-y="0"
     inkscape:window-maximized="1"
     inkscape:current-layer="layer1"
     showborder="true"
     shape-rendering="auto" /><defs
     id="defs2" /><g
     inkscape:label="Layer 1"
     inkscape:groupmode="layer"
     id="layer1"
     transform="translate(-52.837913,-100.68944)"><path
       style="fill:#ffffff;stroke-width:0.264583"
       d="m 84.563671,216.21174 c -2.42598,-1.22429 -5.92937,-2.4159 -9.07828,-3.0878 -2.16364,-0.46167 -3.60953,-0.57763 -7.325887,-0.58748 -5.168226,-0.0137 -8.489678,0.48855 -12.844001,1.94225 -1.290619,0.43088 -2.396813,0.73318 -2.458211,0.67178 -0.328223,-0.32822 3.593087,-5.53797 5.681447,-7.54821 3.237022,-3.11594 5.776259,-4.85329 10.128932,-6.93025 0.08431,-0.0402 0.09376,-18.52784 0.021,-41.08356 l -0.132292,-41.01042 -0.627274,-1.55597 c -0.731803,-1.81526 -2.098122,-3.43077 -3.511325,-4.15173 -1.13503,-0.57905 -3.925774,-0.69224 -5.60061,-0.22716 -0.554378,0.15395 -1.131032,0.23888 -1.281453,0.18874 -0.388463,-0.12949 3.114691,-4.5825 4.859599,-6.17725 1.720709,-1.57263 4.525662,-3.11214 6.704067,-3.67954 3.323418,-0.86564 8.421888,-0.26402 11.098658,1.30964 3.06869,1.80406 4.551,4.95511 5.15006,10.94787 0.17434,1.74402 0.27446,16.17031 0.27543,39.68749 0.001,22.35499 0.1019,37.56031 0.25564,38.49913 0.33231,2.02908 1.17872,3.73463 2.51807,5.07399 1.78974,1.78973 5.64557,4.13388 9.3388,5.6775 1.91494,0.80036 3.485009,1.54736 3.489039,1.65999 0.006,0.16903 -8.549379,6.63599 -13.618699,10.29423 l -1.32292,0.95467 z m 39.251659,-2.12932 c -4.07909,-2.10634 -9.87717,-7.20758 -13.00643,-11.44327 -3.22468,-4.36484 -4.54939,-8.15286 -4.54939,-13.00901 v -2.8143 l 7.34219,-5.4302 c 4.0382,-2.98661 7.48019,-5.51147 7.64888,-5.6108 0.21137,-0.12447 0.4018,0.41584 0.61271,1.73838 0.62511,3.92007 2.2284,7.68659 4.56505,10.72446 2.80016,3.64048 7.44585,5.92728 12.8524,6.32648 l 2.19728,0.16224 -0.0817,-10.29293 -0.0817,-10.29292 -0.73911,-1.85208 c -1.60818,-4.02979 -4.94512,-7.85173 -7.63555,-8.74535 -2.74974,-0.91332 -5.84724,-0.42926 -8.91327,1.39291 -0.92382,0.54902 -3.52768,2.51723 -5.78636,4.37377 -2.25869,1.85655 -4.20468,3.37554 -4.32443,3.37554 -0.11974,0 -1.89143,-2.08761 -3.93707,-4.63914 l -3.71935,-4.63914 -0.004,-20.56243 c -0.004,-20.77386 -0.19073,-27.32563 -0.9373,-32.86554 -0.37884,-2.81122 -1.11371,-6.27353 -1.60048,-7.54063 -0.16665,-0.43379 -0.13475,-0.47605 0.17698,-0.23448 3.32562,2.57714 5.51362,3.75861 8.63751,4.66405 1.76661,0.51204 2.64814,0.59442 6.16254,0.57588 3.82493,-0.0202 4.34153,-0.0854 7.67292,-0.96808 4.88929,-1.29554 9.61811,-3.25652 12.61591,-5.23166 l 0.84194,-0.55473 3.78826,3.25155 c 8.52069,7.31351 11.78539,11.45429 13.88023,17.60495 0.5721,1.67976 0.72455,2.69453 0.82735,5.50721 l 0.12601,3.44801 -4.72891,3.27751 c -2.6009,1.80264 -6.23049,4.32892 -8.06575,5.61397 -1.83525,1.28505 -3.4554,2.33645 -3.60032,2.33645 -0.14493,0 -0.33613,-0.68461 -0.42489,-1.52135 -0.45381,-4.27798 -2.53123,-9.34171 -4.93379,-12.0262 -3.17229,-3.54455 -8.90667,-6.02063 -13.96406,-6.02962 l -1.12448,-0.002 v 12.12419 12.12419 l 1.81319,-0.60812 c 8.08755,-2.71247 17.3151,-1.34676 24.51091,3.6277 1.09691,0.75828 2.98515,2.41984 4.1961,3.69235 2.64271,2.77703 4.35467,5.86239 5.39884,9.72997 l 0.69361,2.5691 0.10197,12.8714 0.10197,12.87141 -1.80569,1.42499 c -6.28407,4.95918 -30.00425,22.44157 -30.44882,22.44157 -0.29643,0 -1.35487,-0.42131 -2.35209,-0.93625 z"
       id="path224" /></g></svg>
