<svg id="svg" version="1.1" xmlns="http://www.w3.org/2000/svg" xmlns:xlink="http://www.w3.org/1999/xlink" width="400" height="400" viewBox="0, 0, 400,400"><g id="svgg"><path id="path0" d="M283.800 0.266 C 282.920 0.369,282.029 0.621,281.820 0.827 C 281.611 1.032,281.150 1.200,280.795 1.200 C 280.441 1.200,279.802 1.515,279.375 1.900 C 278.949 2.285,278.129 2.842,277.554 3.138 C 276.979 3.435,276.042 4.110,275.472 4.638 C 274.902 5.167,274.264 5.600,274.055 5.600 C 273.672 5.600,270.371 7.229,270.000 7.601 C 269.890 7.711,269.260 8.047,268.600 8.347 C 267.940 8.648,267.087 9.052,266.705 9.247 C 266.323 9.441,265.738 9.600,265.405 9.600 C 265.072 9.600,264.800 9.780,264.800 10.000 C 264.800 10.220,264.451 10.400,264.024 10.400 C 263.597 10.400,263.136 10.580,263.000 10.800 C 262.864 11.020,262.403 11.200,261.976 11.200 C 261.549 11.200,261.200 11.380,261.200 11.600 C 261.200 11.820,260.786 12.000,260.280 12.000 C 259.774 12.000,259.189 12.144,258.980 12.319 C 258.771 12.495,257.610 12.970,256.400 13.375 C 255.190 13.780,254.029 14.267,253.820 14.456 C 253.611 14.645,253.037 14.800,252.544 14.800 C 252.051 14.800,251.536 14.980,251.400 15.200 C 251.264 15.420,250.724 15.600,250.200 15.600 C 249.676 15.600,249.136 15.780,249.000 16.000 C 248.864 16.220,248.234 16.400,247.600 16.400 C 246.966 16.400,246.336 16.580,246.200 16.800 C 246.064 17.020,245.333 17.200,244.576 17.200 C 243.819 17.200,243.200 17.380,243.200 17.600 C 243.200 17.820,242.480 18.000,241.600 18.000 C 240.720 18.000,240.000 18.160,240.000 18.357 C 240.000 18.553,238.830 18.946,237.400 19.230 C 235.970 19.514,234.800 19.894,234.800 20.073 C 234.800 20.253,233.371 20.400,231.624 20.400 C 229.877 20.400,228.336 20.580,228.200 20.800 C 227.874 21.328,218.926 21.328,218.600 20.800 C 218.464 20.580,217.319 20.400,216.056 20.400 C 214.793 20.400,213.589 20.247,213.380 20.059 C 213.171 19.871,212.140 19.487,211.090 19.204 C 210.039 18.921,209.083 18.535,208.966 18.345 C 208.849 18.155,208.324 18.000,207.800 18.000 C 207.276 18.000,206.736 17.820,206.600 17.600 C 206.464 17.380,205.913 17.200,205.376 17.200 C 204.839 17.200,204.400 17.020,204.400 16.800 C 204.400 16.580,204.051 16.400,203.624 16.400 C 203.197 16.400,202.736 16.220,202.600 16.000 C 202.464 15.780,202.070 15.600,201.724 15.600 C 201.378 15.600,200.219 14.970,199.147 14.200 C 198.075 13.430,197.030 12.800,196.824 12.800 C 196.618 12.800,195.858 12.260,195.136 11.600 C 194.413 10.940,193.677 10.400,193.500 10.400 C 193.324 10.400,192.381 9.602,191.405 8.626 C 190.430 7.651,188.994 6.550,188.216 6.181 C 187.437 5.811,186.800 5.349,186.800 5.154 C 186.800 4.959,186.440 4.800,186.000 4.800 C 185.560 4.800,185.200 4.620,185.200 4.400 C 185.200 4.180,184.744 4.000,184.187 4.000 C 183.630 4.000,182.528 3.730,181.738 3.400 C 179.803 2.591,173.698 2.600,172.624 3.413 C 172.196 3.736,171.359 4.000,170.761 4.000 C 169.608 4.000,166.400 5.526,166.400 6.074 C 166.400 6.253,166.116 6.400,165.769 6.400 C 165.022 6.400,162.000 9.434,162.000 10.184 C 162.000 10.469,161.734 10.923,161.408 11.193 C 160.467 11.975,159.600 14.009,159.600 15.438 C 159.600 16.161,159.420 16.864,159.200 17.000 C 158.668 17.329,158.668 27.871,159.200 28.200 C 159.420 28.336,159.600 29.146,159.600 30.000 C 159.600 30.854,159.780 31.664,160.000 31.800 C 160.220 31.936,160.400 32.577,160.400 33.224 C 160.400 33.871,160.580 34.400,160.800 34.400 C 161.020 34.400,161.200 35.109,161.200 35.976 C 161.200 36.843,161.380 37.664,161.600 37.800 C 161.820 37.936,162.000 38.836,162.000 39.800 C 162.000 40.764,162.180 41.664,162.400 41.800 C 162.620 41.936,162.800 42.991,162.800 44.144 C 162.800 45.297,162.966 46.411,163.169 46.620 C 163.372 46.829,163.631 48.260,163.745 49.800 C 164.191 55.838,164.847 61.007,165.215 61.375 C 165.427 61.587,165.600 64.323,165.600 67.456 C 165.600 70.823,165.764 73.254,166.000 73.400 C 166.264 73.563,166.400 98.337,166.400 146.424 C 166.400 194.675,166.535 219.200,166.800 219.200 C 167.020 219.200,167.200 219.825,167.200 220.588 C 167.200 221.790,168.388 224.603,169.147 225.200 C 169.287 225.310,169.642 225.868,169.936 226.439 C 170.230 227.011,170.920 228.001,171.469 228.639 C 172.018 229.278,172.857 230.293,173.334 230.896 C 173.810 231.499,174.431 231.994,174.713 231.996 C 174.994 231.998,175.346 232.315,175.493 232.699 C 175.641 233.083,176.130 233.781,176.581 234.249 C 177.894 235.613,178.800 236.785,178.800 237.121 C 178.800 237.292,179.520 238.228,180.400 239.200 C 181.280 240.172,182.000 241.110,182.000 241.284 C 182.000 241.458,182.315 241.942,182.700 242.360 C 184.744 244.577,185.600 245.653,185.600 246.002 C 185.600 246.351,186.250 247.262,187.413 248.545 C 187.640 248.795,188.268 249.628,188.808 250.396 C 189.825 251.841,190.363 252.487,193.223 255.708 C 194.155 256.758,194.846 257.674,194.758 257.743 C 194.671 257.813,193.700 258.476,192.600 259.216 C 191.500 259.956,190.395 260.751,190.145 260.981 C 189.894 261.211,188.746 262.120,187.594 263.000 C 186.442 263.880,185.080 265.005,184.568 265.500 C 184.055 265.995,183.515 266.400,183.367 266.400 C 183.124 266.400,182.251 267.115,178.693 270.231 C 178.084 270.764,177.454 271.200,177.293 271.200 C 177.132 271.201,176.477 271.651,175.838 272.200 C 175.199 272.750,174.538 273.200,174.370 273.200 C 173.824 273.200,169.600 277.265,169.600 277.791 C 169.600 278.072,169.334 278.523,169.008 278.793 C 168.067 279.575,167.200 281.609,167.200 283.038 C 167.200 283.761,167.020 284.464,166.800 284.600 C 166.255 284.937,166.255 307.863,166.800 308.200 C 167.020 308.336,167.200 309.787,167.200 311.424 C 167.200 313.141,167.369 314.400,167.600 314.400 C 167.820 314.400,168.000 315.109,168.000 315.976 C 168.000 316.843,168.180 317.664,168.400 317.800 C 168.620 317.936,168.800 318.757,168.800 319.624 C 168.800 320.491,168.980 321.200,169.200 321.200 C 169.420 321.200,169.600 321.592,169.600 322.072 C 169.600 322.883,170.094 324.719,170.819 326.600 C 171.585 328.587,171.584 328.800,170.811 328.800 C 170.391 328.800,169.936 328.620,169.800 328.400 C 169.664 328.180,169.203 328.000,168.776 328.000 C 168.349 328.000,168.000 327.820,168.000 327.600 C 168.000 327.380,167.550 327.200,167.000 327.200 C 166.450 327.200,166.000 327.020,166.000 326.800 C 166.000 326.580,165.460 326.400,164.800 326.400 C 164.140 326.400,163.600 326.220,163.600 326.000 C 163.600 325.780,163.255 325.600,162.833 325.600 C 162.412 325.600,162.007 325.442,161.933 325.250 C 161.860 325.057,160.711 324.353,159.380 323.685 C 156.813 322.395,150.516 318.643,147.728 316.741 C 146.808 316.113,145.945 315.600,145.810 315.600 C 145.674 315.600,145.152 315.195,144.650 314.700 C 144.147 314.205,143.208 313.350,142.562 312.800 C 141.917 312.250,141.136 311.305,140.827 310.700 C 140.518 310.095,140.115 309.600,139.932 309.600 C 139.750 309.600,139.600 309.060,139.600 308.400 C 139.600 307.740,139.420 307.200,139.200 307.200 C 138.972 307.200,138.800 306.008,138.800 304.424 C 138.800 302.897,138.620 301.536,138.400 301.400 C 138.135 301.236,138.000 261.023,138.000 182.056 C 138.000 108.837,137.856 62.814,137.627 62.580 C 137.421 62.371,137.158 60.490,137.042 58.400 C 136.719 52.574,136.360 49.444,135.959 48.956 C 135.759 48.712,135.519 47.726,135.427 46.766 C 135.334 45.805,135.065 44.955,134.829 44.876 C 134.593 44.798,134.400 43.949,134.400 42.990 C 134.400 42.032,134.220 41.136,134.000 41.000 C 133.780 40.864,133.600 40.133,133.600 39.376 C 133.600 38.619,133.420 38.000,133.200 38.000 C 132.980 38.000,132.800 37.561,132.800 37.024 C 132.800 36.487,132.620 35.936,132.400 35.800 C 132.180 35.664,132.000 35.203,132.000 34.776 C 132.000 34.349,131.820 34.000,131.600 34.000 C 131.380 34.000,131.200 33.755,131.200 33.456 C 131.200 32.689,128.736 28.000,128.333 28.000 C 128.150 28.000,128.000 27.775,128.000 27.500 C 127.999 27.225,127.594 26.520,127.100 25.932 C 126.605 25.345,125.840 24.361,125.400 23.746 C 124.960 23.131,123.896 21.992,123.035 21.214 C 122.175 20.436,120.604 18.887,119.543 17.772 C 118.483 16.656,117.117 15.486,116.508 15.172 C 115.899 14.857,114.950 14.191,114.400 13.692 C 113.850 13.193,112.905 12.564,112.300 12.294 C 111.695 12.025,111.200 11.669,111.200 11.502 C 111.200 11.336,110.840 11.200,110.400 11.200 C 109.960 11.200,109.600 11.020,109.600 10.800 C 109.600 10.580,109.251 10.400,108.824 10.400 C 108.397 10.400,107.936 10.220,107.800 10.000 C 107.664 9.780,107.203 9.600,106.776 9.600 C 106.349 9.600,106.000 9.420,106.000 9.200 C 106.000 8.980,105.460 8.800,104.800 8.800 C 104.140 8.800,103.600 8.620,103.600 8.400 C 103.600 8.180,102.880 8.000,102.000 8.000 C 101.120 8.000,100.400 7.820,100.400 7.600 C 100.400 7.380,99.590 7.200,98.600 7.200 C 97.610 7.200,96.800 7.020,96.800 6.800 C 96.800 6.580,95.900 6.400,94.800 6.400 C 93.700 6.400,92.800 6.220,92.800 6.000 C 92.800 5.762,91.275 5.600,89.024 5.600 C 86.937 5.600,85.137 5.421,85.000 5.200 C 84.672 4.669,74.528 4.669,74.200 5.200 C 74.064 5.420,72.354 5.600,70.400 5.600 C 68.446 5.600,66.736 5.780,66.600 6.000 C 66.464 6.220,65.643 6.400,64.776 6.400 C 63.909 6.400,63.200 6.580,63.200 6.800 C 63.200 7.020,62.401 7.200,61.424 7.200 C 60.447 7.200,59.536 7.380,59.400 7.600 C 59.264 7.820,58.711 8.000,58.171 8.000 C 57.631 8.000,56.877 8.159,56.495 8.353 C 55.715 8.750,53.808 9.557,52.600 10.001 C 50.646 10.720,46.292 13.080,45.407 13.900 C 44.872 14.395,44.172 14.800,43.851 14.800 C 43.530 14.800,43.207 14.948,43.133 15.128 C 43.060 15.309,42.323 15.912,41.495 16.468 C 40.668 17.025,39.318 18.092,38.495 18.840 C 37.673 19.588,36.280 20.737,35.400 21.393 C 33.444 22.851,26.237 30.076,24.631 32.189 C 23.988 33.035,22.863 34.344,22.131 35.098 C 21.399 35.852,20.800 36.605,20.800 36.772 C 20.800 36.939,20.350 37.599,19.800 38.238 C 19.251 38.877,18.801 39.625,18.800 39.900 C 18.800 40.175,18.620 40.400,18.400 40.400 C 18.180 40.400,18.000 40.670,18.000 41.000 C 18.000 41.330,17.865 41.601,17.700 41.603 C 17.535 41.605,17.202 42.010,16.959 42.503 C 15.617 45.234,14.162 47.817,13.900 47.933 C 13.735 48.007,13.600 48.772,13.600 49.633 C 13.600 50.495,13.420 51.200,13.200 51.200 C 12.958 51.200,12.800 52.925,12.800 55.576 C 12.800 58.063,12.973 60.060,13.200 60.200 C 13.420 60.336,13.600 60.962,13.600 61.591 C 13.600 62.752,14.751 65.193,15.300 65.197 C 15.465 65.199,15.600 65.470,15.600 65.800 C 15.600 66.130,15.780 66.400,16.000 66.400 C 16.220 66.400,16.400 66.676,16.400 67.013 C 16.400 67.808,18.990 70.400,19.783 70.400 C 20.119 70.400,20.618 70.760,20.893 71.200 C 21.168 71.640,21.709 72.000,22.096 72.000 C 22.483 72.000,22.800 72.180,22.800 72.400 C 22.800 72.620,23.610 72.800,24.600 72.800 C 25.590 72.800,26.400 72.980,26.400 73.200 C 26.400 73.447,28.467 73.600,31.800 73.600 C 35.133 73.600,37.200 73.447,37.200 73.200 C 37.200 72.980,37.999 72.800,38.976 72.800 C 39.953 72.800,40.864 72.620,41.000 72.400 C 41.518 71.562,45.600 71.917,45.600 72.800 C 45.600 73.240,45.780 73.600,46.000 73.600 C 46.220 73.600,46.400 73.960,46.400 74.400 C 46.400 74.840,46.580 75.200,46.800 75.200 C 47.020 75.200,47.200 75.729,47.200 76.376 C 47.200 77.023,47.380 77.664,47.600 77.800 C 47.820 77.936,48.000 78.746,48.000 79.600 C 48.000 80.454,48.180 81.264,48.400 81.400 C 49.004 81.773,48.950 320.400,48.346 320.400 C 47.819 320.400,42.374 324.170,40.980 325.500 C 40.461 325.995,39.798 326.400,39.506 326.400 C 39.215 326.400,38.717 326.760,38.400 327.200 C 38.083 327.640,37.591 328.000,37.306 328.000 C 36.678 328.000,35.321 328.753,34.245 329.700 C 33.807 330.085,33.290 330.400,33.096 330.400 C 32.902 330.400,32.515 330.625,32.237 330.900 C 31.959 331.175,31.227 331.760,30.609 332.200 C 29.992 332.640,28.346 334.125,26.951 335.500 C 25.556 336.875,24.319 338.000,24.201 338.000 C 23.933 338.000,18.000 343.916,18.000 344.184 C 18.000 344.292,16.868 345.540,15.485 346.958 C 14.101 348.376,12.707 350.046,12.387 350.668 C 12.067 351.291,11.489 352.091,11.103 352.447 C 10.716 352.803,10.400 353.298,10.400 353.547 C 10.400 353.796,10.220 354.000,10.000 354.000 C 9.780 354.000,9.600 354.360,9.600 354.800 C 9.600 355.240,9.351 355.600,9.046 355.600 C 8.741 355.600,8.171 356.090,7.778 356.690 C 7.385 357.289,6.735 358.133,6.332 358.565 C 5.929 358.997,5.600 359.572,5.600 359.842 C 5.600 360.112,5.451 360.393,5.269 360.467 C 4.832 360.643,1.200 366.247,1.200 366.745 C 1.200 366.959,0.975 367.208,0.700 367.300 C -0.351 367.650,0.021 386.945,1.100 388.094 C 1.595 388.620,2.000 389.227,2.000 389.442 C 2.000 389.989,5.119 392.800,5.725 392.800 C 5.999 392.800,6.483 393.160,6.800 393.600 C 7.129 394.057,7.835 394.400,8.446 394.400 C 9.033 394.400,9.618 394.670,9.745 395.000 C 9.888 395.374,10.498 395.600,11.364 395.600 C 12.128 395.600,12.864 395.780,13.000 396.000 C 13.326 396.528,22.274 396.528,22.600 396.000 C 22.736 395.780,23.342 395.600,23.947 395.600 C 24.552 395.600,25.396 395.336,25.824 395.013 C 26.251 394.690,27.095 394.420,27.700 394.413 C 28.305 394.406,28.800 394.220,28.800 394.000 C 28.800 393.780,29.340 393.600,30.000 393.600 C 30.660 393.600,31.200 393.420,31.200 393.200 C 31.200 392.980,31.740 392.800,32.400 392.800 C 33.060 392.800,33.600 392.620,33.600 392.400 C 33.600 392.180,34.140 392.000,34.800 392.000 C 35.460 392.000,36.000 391.820,36.000 391.600 C 36.000 391.380,36.709 391.200,37.576 391.200 C 38.443 391.200,39.252 391.039,39.374 390.842 C 39.598 390.480,41.121 390.200,45.300 389.751 C 46.565 389.615,47.600 389.345,47.600 389.152 C 47.600 388.958,48.824 388.800,50.320 388.800 C 51.816 388.800,53.230 388.610,53.462 388.378 C 54.041 387.799,75.561 387.801,76.140 388.380 C 76.371 388.611,77.593 388.800,78.856 388.800 C 80.119 388.800,81.264 388.980,81.400 389.200 C 81.536 389.420,82.526 389.600,83.600 389.600 C 84.674 389.600,85.664 389.780,85.800 390.000 C 85.936 390.220,86.746 390.400,87.600 390.400 C 88.454 390.400,89.264 390.580,89.400 390.800 C 89.536 391.020,90.177 391.200,90.824 391.200 C 91.471 391.200,92.000 391.380,92.000 391.600 C 92.000 391.820,92.630 392.000,93.400 392.000 C 94.170 392.000,94.800 392.180,94.800 392.400 C 94.800 392.620,95.340 392.800,96.000 392.800 C 96.660 392.800,97.200 392.980,97.200 393.200 C 97.200 393.420,97.740 393.600,98.400 393.600 C 99.060 393.600,99.600 393.780,99.600 394.000 C 99.600 394.220,99.960 394.400,100.400 394.400 C 100.840 394.400,101.200 394.566,101.200 394.768 C 101.200 394.971,101.738 395.255,102.395 395.399 C 103.053 395.543,103.694 395.828,103.819 396.031 C 103.945 396.234,104.397 396.400,104.824 396.400 C 105.251 396.400,105.600 396.580,105.600 396.800 C 105.600 397.020,105.960 397.200,106.400 397.200 C 106.840 397.200,107.200 397.380,107.200 397.600 C 107.200 397.820,107.439 398.000,107.732 398.000 C 108.025 398.000,109.150 398.449,110.232 398.998 C 112.538 400.168,131.317 400.592,132.471 399.500 C 132.762 399.225,133.495 398.745,134.100 398.432 C 134.705 398.120,135.200 397.715,135.200 397.532 C 135.200 397.350,135.438 397.200,135.728 397.200 C 136.018 397.200,136.992 396.570,137.892 395.800 C 138.791 395.030,139.635 394.400,139.767 394.400 C 139.899 394.400,140.572 393.860,141.263 393.200 C 141.954 392.540,142.696 392.000,142.912 392.000 C 143.129 392.000,143.597 391.684,143.953 391.297 C 144.309 390.911,145.092 390.342,145.693 390.033 C 146.295 389.725,147.105 389.178,147.493 388.819 C 147.882 388.461,149.010 387.608,150.000 386.925 C 150.990 386.242,152.340 385.215,153.000 384.642 C 153.660 384.070,154.385 383.601,154.612 383.600 C 154.838 383.600,155.283 383.240,155.600 382.800 C 155.917 382.360,156.391 382.000,156.653 382.000 C 156.915 382.000,157.583 381.460,158.139 380.800 C 158.694 380.140,159.313 379.600,159.515 379.600 C 159.716 379.600,160.446 379.060,161.137 378.400 C 161.828 377.740,162.531 377.200,162.701 377.200 C 162.870 377.200,163.727 376.573,164.604 375.808 C 165.482 375.042,166.337 374.412,166.504 374.408 C 166.671 374.403,167.372 373.860,168.063 373.200 C 168.754 372.540,169.496 372.000,169.712 372.000 C 169.929 372.000,170.397 371.683,170.753 371.295 C 171.109 370.907,172.074 370.142,172.897 369.595 C 173.721 369.048,174.396 368.465,174.397 368.300 C 174.399 368.135,174.598 368.000,174.839 368.000 C 176.245 368.000,184.400 361.358,184.400 360.213 C 184.400 359.876,184.547 359.600,184.726 359.600 C 184.906 359.600,185.487 358.835,186.018 357.900 C 187.013 356.149,187.065 356.015,187.150 355.000 C 187.228 354.063,187.811 354.293,188.421 355.500 C 189.200 357.043,200.972 369.156,202.074 369.548 C 202.544 369.716,203.807 370.813,207.200 374.000 C 208.489 375.210,210.204 376.740,211.012 377.400 C 211.820 378.060,212.720 378.825,213.012 379.100 C 213.304 379.375,213.670 379.600,213.826 379.600 C 213.981 379.600,214.503 380.005,214.986 380.500 C 216.002 381.542,216.851 382.229,218.800 383.586 C 219.570 384.123,220.290 384.660,220.400 384.781 C 220.510 384.902,221.130 385.271,221.779 385.601 C 222.427 385.930,223.356 386.566,223.844 387.014 C 224.332 387.462,225.242 388.085,225.866 388.400 C 226.490 388.714,227.478 389.293,228.062 389.686 C 228.646 390.079,229.411 390.400,229.762 390.400 C 230.113 390.400,230.400 390.580,230.400 390.800 C 230.400 391.020,230.760 391.200,231.200 391.200 C 231.640 391.200,232.000 391.380,232.000 391.600 C 232.000 391.820,232.360 392.000,232.800 392.000 C 233.240 392.000,233.600 392.180,233.600 392.400 C 233.600 392.620,234.050 392.800,234.600 392.800 C 235.150 392.800,235.600 392.980,235.600 393.200 C 235.600 393.420,235.960 393.600,236.400 393.600 C 236.840 393.600,237.200 393.780,237.200 394.000 C 237.200 394.220,237.729 394.400,238.376 394.400 C 239.023 394.400,239.648 394.554,239.765 394.743 C 240.682 396.227,256.000 396.240,256.000 394.756 C 256.000 394.560,256.450 394.400,257.000 394.400 C 257.550 394.400,258.000 394.220,258.000 394.000 C 258.000 393.780,258.315 393.596,258.700 393.591 C 259.085 393.586,259.850 393.230,260.400 392.800 C 260.950 392.370,261.598 392.014,261.841 392.009 C 262.083 392.004,262.846 391.460,263.537 390.800 C 264.228 390.140,264.940 389.600,265.121 389.600 C 265.301 389.600,265.798 389.285,266.225 388.900 C 266.652 388.515,267.721 387.665,268.600 387.012 C 269.480 386.359,270.549 385.504,270.975 385.112 C 271.402 384.720,271.894 384.400,272.069 384.400 C 272.352 384.400,273.220 383.662,276.658 380.500 C 277.196 380.005,277.773 379.600,277.940 379.600 C 278.107 379.600,278.923 378.978,279.754 378.217 C 280.584 377.456,281.581 376.733,281.968 376.610 C 282.355 376.487,282.911 375.940,283.204 375.393 C 283.496 374.847,284.065 374.400,284.468 374.400 C 284.870 374.400,285.200 374.220,285.200 374.000 C 285.200 373.780,285.470 373.600,285.800 373.600 C 286.130 373.600,286.400 373.448,286.400 373.263 C 286.400 373.077,287.202 372.513,288.182 372.009 C 289.163 371.505,290.288 370.797,290.682 370.435 C 291.077 370.074,292.030 369.339,292.800 368.802 C 293.570 368.266,294.438 367.595,294.729 367.313 C 295.019 367.031,295.379 366.799,295.529 366.798 C 295.678 366.797,296.375 366.257,297.078 365.598 C 297.781 364.939,298.546 364.400,298.778 364.400 C 299.010 364.400,299.200 364.220,299.200 364.000 C 299.200 363.780,299.430 363.600,299.712 363.600 C 299.993 363.600,300.483 363.240,300.800 362.800 C 301.117 362.360,301.580 362.000,301.829 362.000 C 302.078 362.000,302.846 361.460,303.537 360.800 C 304.228 360.140,304.940 359.600,305.121 359.600 C 305.301 359.600,305.798 359.285,306.225 358.900 C 306.652 358.515,307.713 357.667,308.584 357.016 C 310.383 355.670,312.086 354.214,313.395 352.900 C 313.888 352.405,314.496 352.000,314.746 352.000 C 314.996 352.000,315.200 351.820,315.200 351.600 C 315.200 351.380,315.470 351.200,315.800 351.200 C 316.130 351.200,316.400 351.020,316.400 350.800 C 316.400 350.580,316.636 350.400,316.925 350.400 C 317.213 350.400,317.805 350.085,318.240 349.700 C 318.674 349.315,319.653 348.558,320.415 348.018 C 322.264 346.707,322.612 346.420,324.208 344.900 C 324.959 344.185,325.849 343.600,326.187 343.600 C 326.524 343.600,326.800 343.420,326.800 343.200 C 326.800 342.980,327.030 342.800,327.312 342.800 C 327.593 342.800,328.083 342.440,328.400 342.000 C 328.717 341.560,329.180 341.200,329.429 341.200 C 329.678 341.200,330.446 340.660,331.137 340.000 C 331.828 339.340,332.539 338.800,332.718 338.800 C 332.897 338.800,333.731 338.170,334.572 337.400 C 335.413 336.630,336.231 336.000,336.391 336.000 C 336.551 336.000,337.246 335.460,337.937 334.800 C 338.628 334.140,339.376 333.600,339.600 333.600 C 339.824 333.600,340.572 333.060,341.263 332.400 C 341.954 331.740,342.670 331.200,342.855 331.200 C 343.040 331.200,343.508 330.940,343.895 330.622 C 344.283 330.305,345.680 329.240,347.000 328.257 C 348.320 327.274,350.258 325.644,351.307 324.635 C 352.356 323.626,353.441 322.800,353.719 322.800 C 353.996 322.800,354.483 322.440,354.800 322.000 C 355.117 321.560,355.607 321.200,355.888 321.200 C 356.170 321.200,356.400 321.020,356.400 320.800 C 356.400 320.580,356.643 320.400,356.941 320.400 C 357.238 320.400,358.046 319.860,358.737 319.200 C 359.428 318.540,360.137 318.000,360.313 318.000 C 360.778 318.000,363.600 314.852,363.600 314.333 C 363.600 314.092,363.915 313.603,364.300 313.247 C 365.426 312.206,366.400 310.172,366.400 308.862 C 366.400 308.194,366.580 307.536,366.800 307.400 C 367.326 307.075,367.354 223.518,366.829 222.980 C 366.625 222.771,366.371 221.160,366.265 219.400 C 365.996 214.918,365.345 211.048,364.833 210.878 C 364.595 210.798,364.400 209.938,364.400 208.967 C 364.400 207.995,364.220 207.200,364.000 207.200 C 363.780 207.200,363.600 206.480,363.600 205.600 C 363.600 204.720,363.420 204.000,363.200 204.000 C 362.980 204.000,362.800 203.368,362.800 202.595 C 362.800 201.822,362.620 200.832,362.400 200.395 C 362.180 199.958,361.820 199.242,361.600 198.805 C 361.380 198.368,361.200 197.648,361.200 197.205 C 361.200 196.762,361.020 196.400,360.800 196.400 C 360.580 196.400,360.400 196.051,360.400 195.624 C 360.400 195.197,360.220 194.736,360.000 194.600 C 359.780 194.464,359.600 193.913,359.600 193.376 C 359.600 192.839,359.420 192.400,359.200 192.400 C 358.980 192.400,358.800 192.141,358.800 191.825 C 358.800 191.076,356.462 186.731,355.750 186.156 C 355.448 185.912,355.200 185.500,355.200 185.242 C 355.200 184.983,354.899 184.312,354.530 183.750 C 353.379 181.993,352.388 180.228,352.142 179.500 C 352.013 179.115,351.752 178.800,351.564 178.800 C 351.375 178.800,350.938 178.254,350.594 177.587 C 350.249 176.921,349.434 175.866,348.783 175.244 C 348.132 174.622,347.598 173.953,347.596 173.757 C 347.590 173.270,344.646 170.227,342.887 168.891 C 342.098 168.291,339.789 166.135,337.755 164.100 C 335.721 162.065,333.847 160.400,333.589 160.400 C 333.332 160.400,332.617 159.860,332.000 159.200 C 331.383 158.540,330.726 158.000,330.538 158.000 C 330.351 158.000,329.688 157.460,329.065 156.800 C 328.442 156.140,327.717 155.600,327.454 155.600 C 327.192 155.600,326.717 155.240,326.400 154.800 C 326.083 154.360,325.621 154.000,325.374 154.000 C 322.856 154.000,323.686 151.556,326.687 150.132 C 327.409 149.789,328.000 149.349,328.000 149.154 C 328.000 148.959,328.225 148.800,328.500 148.800 C 328.775 148.799,329.485 148.394,330.078 147.900 C 330.671 147.405,332.057 146.370,333.159 145.600 C 334.261 144.830,335.171 144.065,335.181 143.900 C 335.192 143.735,335.470 143.600,335.800 143.600 C 336.130 143.600,336.400 143.420,336.400 143.200 C 336.400 142.980,336.694 142.800,337.053 142.800 C 337.412 142.800,337.997 142.484,338.353 142.097 C 338.709 141.711,339.495 141.140,340.100 140.830 C 340.705 140.519,341.200 140.115,341.200 139.932 C 341.200 139.750,341.396 139.600,341.635 139.600 C 342.009 139.600,350.639 133.846,351.200 133.222 C 351.310 133.100,352.210 132.377,353.200 131.615 C 354.190 130.853,355.060 130.088,355.133 129.915 C 355.207 129.742,355.522 129.600,355.833 129.600 C 356.145 129.600,356.400 129.442,356.400 129.249 C 356.400 129.055,356.940 128.673,357.600 128.400 C 358.260 128.127,358.800 127.745,358.800 127.551 C 358.800 127.358,359.051 127.200,359.358 127.200 C 359.665 127.200,360.340 126.736,360.858 126.169 C 361.376 125.602,362.205 124.710,362.700 124.187 C 363.195 123.664,363.600 123.024,363.600 122.765 C 363.600 122.506,363.920 122.003,364.310 121.647 C 365.537 120.530,366.400 118.873,366.400 117.638 C 366.400 116.983,366.580 116.336,366.800 116.200 C 367.317 115.880,367.347 89.512,366.831 88.980 C 366.628 88.771,366.414 87.700,366.356 86.600 C 366.298 85.500,366.113 84.330,365.947 84.000 C 365.780 83.670,365.536 82.725,365.404 81.900 C 365.272 81.075,364.992 80.400,364.782 80.400 C 364.572 80.400,364.400 79.680,364.400 78.800 C 364.400 77.920,364.220 77.200,364.000 77.200 C 363.780 77.200,363.600 76.660,363.600 76.000 C 363.600 75.340,363.420 74.800,363.200 74.800 C 362.980 74.800,362.800 74.181,362.800 73.424 C 362.800 72.667,362.620 71.936,362.400 71.800 C 362.180 71.664,362.000 71.113,362.000 70.576 C 362.000 70.039,361.820 69.600,361.600 69.600 C 361.380 69.600,361.200 69.161,361.200 68.624 C 361.200 68.087,361.020 67.536,360.800 67.400 C 360.580 67.264,360.400 66.803,360.400 66.376 C 360.400 65.949,360.220 65.600,360.000 65.600 C 359.780 65.600,359.600 65.240,359.600 64.800 C 359.600 64.360,359.420 64.000,359.200 64.000 C 358.980 64.000,358.800 63.741,358.800 63.425 C 358.800 62.833,356.586 58.581,355.826 57.714 C 354.657 56.379,354.400 55.999,354.400 55.600 C 354.400 55.362,354.069 54.811,353.664 54.377 C 353.259 53.942,352.674 53.095,352.364 52.493 C 352.054 51.892,351.485 51.051,351.100 50.625 C 350.715 50.198,350.400 49.679,350.400 49.471 C 350.400 49.264,350.067 48.803,349.659 48.447 C 349.252 48.091,348.617 47.215,348.249 46.500 C 347.881 45.785,347.404 45.200,347.190 45.200 C 346.975 45.200,346.800 45.023,346.800 44.807 C 346.800 44.376,345.537 42.847,342.864 40.044 C 341.910 39.043,340.751 37.678,340.290 37.012 C 339.288 35.564,328.474 24.800,328.022 24.800 C 327.849 24.800,326.618 23.765,325.287 22.500 C 320.390 17.845,316.529 14.407,314.787 13.151 C 313.804 12.442,312.188 11.035,311.195 10.025 C 310.202 9.015,308.762 7.755,307.995 7.224 C 307.228 6.693,305.838 5.480,304.907 4.529 C 303.975 3.578,302.980 2.800,302.695 2.800 C 302.410 2.800,301.917 2.440,301.600 2.000 C 301.283 1.560,300.718 1.200,300.345 1.200 C 299.972 1.200,299.600 1.000,299.518 0.755 C 299.363 0.289,286.916 -0.098,283.800 0.266 M293.939 20.300 C 295.402 21.565,296.690 22.694,296.800 22.809 C 296.910 22.923,299.700 25.347,303.000 28.195 C 306.300 31.043,309.090 33.470,309.200 33.588 C 309.310 33.706,311.560 35.669,314.200 37.951 C 326.983 49.000,339.856 65.708,344.056 76.700 C 344.245 77.195,344.572 78.005,344.783 78.500 C 348.004 86.063,350.782 107.666,348.952 110.909 C 348.587 111.555,343.876 114.974,331.200 123.790 C 317.632 133.226,304.231 142.540,301.429 144.481 C 297.734 147.040,297.322 147.005,297.011 144.100 C 293.164 108.192,270.824 85.858,238.000 85.105 L 233.400 85.000 233.298 123.100 C 233.228 149.329,233.326 161.200,233.613 161.200 C 233.842 161.200,236.408 160.394,239.315 159.408 C 283.553 144.408,336.514 170.833,346.323 212.800 C 348.692 222.932,348.600 220.890,348.600 263.600 L 348.600 303.000 314.000 328.921 C 294.970 343.177,272.560 359.976,264.200 366.252 C 246.748 379.352,248.598 378.546,242.592 375.665 C 226.467 367.927,204.933 348.249,195.137 332.300 C 187.563 319.968,185.080 310.975,185.286 296.624 L 185.400 288.649 188.056 286.624 C 190.572 284.706,208.515 271.401,222.553 261.043 C 226.099 258.426,229.799 255.678,230.776 254.935 C 233.011 253.235,233.334 253.356,233.681 256.032 C 234.450 261.955,235.292 266.468,236.175 269.400 C 243.486 293.685,259.468 308.621,282.400 312.600 C 287.374 313.463,295.265 313.969,295.921 313.466 C 296.796 312.796,296.380 254.380,295.474 250.600 C 294.688 247.325,293.382 243.105,292.627 241.400 C 290.986 237.699,290.464 236.690,288.530 233.485 C 275.532 211.939,258.624 207.987,237.815 221.633 C 233.511 224.455,230.432 226.882,217.600 237.566 C 213.090 241.321,209.220 244.392,209.000 244.391 C 208.780 244.389,205.450 240.410,201.600 235.549 C 197.750 230.687,192.502 224.075,189.937 220.855 L 185.275 215.000 185.082 146.000 C 184.898 79.736,184.786 73.133,183.608 59.200 C 182.510 46.220,180.604 34.862,178.003 25.801 C 176.904 21.972,177.074 21.496,178.917 23.232 C 183.808 27.840,193.329 33.351,200.600 35.783 C 208.331 38.369,212.857 39.001,223.600 38.994 C 232.827 38.988,234.823 38.806,242.000 37.322 C 243.650 36.980,245.450 36.614,246.000 36.507 C 258.031 34.175,278.373 25.755,288.338 18.984 C 290.394 17.587,290.950 17.718,293.939 20.300 M86.303 23.789 C 109.967 27.368,117.010 37.335,119.604 70.922 C 119.852 74.129,120.003 118.909,120.008 190.722 C 120.016 305.604,120.043 307.959,121.413 313.355 C 124.063 323.786,135.865 334.214,153.800 341.971 C 156.000 342.923,158.700 344.103,159.800 344.594 C 160.900 345.085,162.970 345.896,164.400 346.396 C 170.158 348.408,170.106 348.106,165.300 351.663 C 163.155 353.250,156.180 358.442,149.800 363.200 C 136.445 373.161,123.214 382.929,122.531 383.332 C 122.273 383.484,119.933 382.571,117.331 381.302 C 87.827 366.917,54.747 364.977,23.600 375.803 C 16.412 378.302,16.457 378.338,19.900 372.861 C 30.126 356.593,43.925 344.110,61.309 335.402 L 67.217 332.443 67.200 206.721 C 67.181 75.597,67.219 78.864,65.656 72.800 C 61.724 57.543,51.716 50.969,37.400 54.240 C 30.969 55.709,30.896 55.632,34.271 50.950 C 49.315 30.078,66.964 20.865,86.303 23.789 M254.600 108.011 C 255.480 108.400,256.785 108.961,257.500 109.257 C 258.215 109.553,258.800 109.931,258.800 110.098 C 258.800 110.264,259.025 110.400,259.300 110.400 C 259.575 110.401,260.277 110.806,260.861 111.300 C 263.635 113.654,264.639 114.386,265.100 114.393 C 265.375 114.397,265.600 114.636,265.600 114.925 C 265.600 115.213,265.960 115.836,266.400 116.308 C 266.840 116.780,267.200 117.282,267.200 117.423 C 267.200 117.564,267.740 118.183,268.400 118.800 C 269.060 119.417,269.600 120.209,269.600 120.560 C 269.600 120.912,269.780 121.200,270.000 121.200 C 270.220 121.200,270.400 121.436,270.400 121.725 C 270.400 122.013,270.760 122.636,271.200 123.108 C 271.640 123.580,272.000 124.244,272.000 124.583 C 272.000 124.922,272.180 125.200,272.400 125.200 C 272.620 125.200,272.800 125.524,272.800 125.920 C 272.800 126.316,272.948 126.811,273.129 127.020 C 273.310 127.229,273.798 128.435,274.212 129.700 C 274.627 130.965,275.108 132.000,275.283 132.000 C 275.457 132.000,275.600 132.540,275.600 133.200 C 275.600 133.860,275.780 134.400,276.000 134.400 C 276.220 134.400,276.400 135.025,276.400 135.789 L 276.400 137.178 263.800 137.289 L 251.200 137.400 251.200 122.073 L 251.200 106.746 252.100 107.025 C 252.595 107.179,253.720 107.623,254.600 108.011 M261.200 232.400 C 261.200 232.620,261.650 232.800,262.200 232.800 C 262.750 232.800,263.200 232.980,263.200 233.200 C 263.200 233.420,263.448 233.600,263.752 233.600 C 264.683 233.600,270.400 239.702,270.400 240.696 C 270.400 240.973,270.550 241.200,270.732 241.200 C 270.915 241.200,271.320 241.691,271.632 242.292 C 271.945 242.892,272.785 244.366,273.500 245.568 C 274.215 246.770,274.800 248.079,274.800 248.476 C 274.800 248.874,274.980 249.200,275.200 249.200 C 275.420 249.200,275.600 249.650,275.600 250.200 C 275.600 250.750,275.780 251.200,276.000 251.200 C 276.220 251.200,276.400 251.740,276.400 252.400 C 276.400 253.060,276.580 253.600,276.800 253.600 C 277.022 253.600,277.200 254.659,277.200 255.976 C 277.200 257.283,277.380 258.464,277.600 258.600 C 277.856 258.758,278.000 264.719,278.000 275.168 L 278.000 291.489 277.000 291.298 C 276.450 291.193,276.000 290.948,276.000 290.753 C 276.000 290.559,275.766 290.400,275.480 290.400 C 274.744 290.400,272.807 289.459,272.803 289.100 C 272.801 288.935,272.440 288.800,272.000 288.800 C 271.560 288.800,271.200 288.659,271.200 288.486 C 271.200 288.314,270.643 287.844,269.963 287.442 C 268.447 286.546,263.624 281.816,262.655 280.274 C 262.266 279.654,261.701 278.844,261.400 278.474 C 259.452 276.077,258.000 273.908,258.000 273.397 C 258.000 273.068,257.820 272.800,257.600 272.800 C 257.380 272.800,257.200 272.440,257.200 272.000 C 257.200 271.560,257.065 271.200,256.900 271.200 C 256.735 271.200,256.255 270.120,255.833 268.800 C 255.411 267.480,254.916 266.400,254.733 266.400 C 254.550 266.400,254.400 265.860,254.400 265.200 C 254.400 264.540,254.220 264.000,254.000 264.000 C 253.780 264.000,253.600 263.381,253.600 262.624 C 253.600 261.867,253.420 261.136,253.200 261.000 C 252.980 260.864,252.800 259.773,252.800 258.576 C 252.800 257.379,252.620 256.400,252.400 256.400 C 252.178 256.400,252.000 255.341,252.000 254.024 C 252.000 252.717,251.820 251.536,251.600 251.400 C 251.380 251.264,251.200 250.443,251.200 249.576 C 251.200 248.709,251.020 248.000,250.800 248.000 C 250.580 248.000,250.400 247.460,250.400 246.800 C 250.400 246.140,250.220 245.600,250.000 245.600 C 249.780 245.600,249.600 245.190,249.600 244.688 C 249.600 244.187,249.240 243.517,248.800 243.200 C 248.360 242.883,248.000 242.391,248.000 242.108 C 248.000 241.825,247.442 241.009,246.759 240.296 C 245.781 239.274,245.654 238.973,246.159 238.871 C 246.512 238.800,246.800 238.575,246.800 238.371 C 246.800 238.167,247.070 238.000,247.400 238.000 C 247.730 238.000,248.000 237.832,248.000 237.627 C 248.000 237.422,248.339 237.146,248.752 237.015 C 249.416 236.804,250.019 236.379,251.883 234.807 C 252.149 234.583,252.644 234.400,252.983 234.400 C 253.322 234.400,253.600 234.220,253.600 234.000 C 253.600 233.780,254.140 233.600,254.800 233.600 C 255.460 233.600,256.000 233.420,256.000 233.200 C 256.000 232.980,256.540 232.800,257.200 232.800 C 257.860 232.800,258.400 232.620,258.400 232.400 C 258.400 232.180,259.030 232.000,259.800 232.000 C 260.570 232.000,261.200 232.180,261.200 232.400 " stroke="none" fill="#f8efe0" fill-rule="evenodd"></path><path id="path1" d="M285.775 21.612 C 282.030 24.020,275.462 27.481,270.400 29.714 C 266.930 31.245,255.128 35.200,254.028 35.200 C 253.599 35.200,253.148 35.360,253.027 35.556 C 252.906 35.751,252.221 36.008,251.504 36.127 C 250.787 36.245,249.390 36.545,248.400 36.793 C 235.094 40.125,217.782 40.820,207.200 38.447 C 206.210 38.225,204.860 37.930,204.200 37.791 C 203.540 37.653,202.640 37.398,202.200 37.225 C 201.760 37.052,200.680 36.694,199.800 36.429 C 198.920 36.164,197.840 35.803,197.400 35.626 C 191.961 33.442,186.668 30.515,182.454 27.363 C 178.987 24.769,178.910 24.790,179.797 28.075 C 181.117 32.966,182.060 37.998,183.382 47.200 C 185.553 62.327,185.671 66.908,185.850 143.303 L 186.017 214.406 192.434 222.503 C 195.964 226.956,199.335 231.224,199.926 231.986 C 200.892 233.233,204.467 237.690,207.718 241.700 C 209.314 243.669,209.234 243.694,213.400 239.937 C 217.853 235.922,224.880 230.055,228.600 227.247 C 230.140 226.084,231.969 224.691,232.664 224.151 C 238.382 219.708,245.645 215.786,250.600 214.465 C 257.668 212.580,264.538 212.552,269.000 214.390 C 269.440 214.571,270.413 214.951,271.163 215.234 C 279.789 218.493,291.466 233.110,295.262 245.400 C 297.150 251.513,297.290 254.030,297.459 284.690 L 297.620 313.980 296.653 314.223 C 294.387 314.791,283.942 314.007,278.477 312.858 C 259.619 308.894,244.082 294.530,236.991 274.503 C 236.231 272.357,235.607 270.206,235.604 269.724 C 235.602 269.242,235.439 268.748,235.242 268.626 C 235.045 268.505,234.781 267.729,234.654 266.903 C 234.527 266.076,234.229 264.230,233.992 262.800 C 233.754 261.370,233.470 259.210,233.359 258.000 C 233.020 254.283,233.013 254.282,229.344 257.069 C 228.715 257.547,227.030 258.796,225.600 259.846 C 223.028 261.734,213.589 268.791,207.400 273.453 C 205.640 274.779,202.130 277.390,199.600 279.255 C 197.070 281.120,192.962 284.159,190.471 286.007 L 185.943 289.367 186.144 297.384 C 186.471 310.389,187.579 315.416,192.265 325.156 C 200.863 343.026,223.287 364.965,242.600 374.404 C 248.365 377.221,247.663 377.277,252.643 373.601 C 263.778 365.381,278.236 354.621,283.168 350.885 C 296.375 340.879,307.318 332.717,311.200 329.975 C 316.024 326.568,317.623 325.359,322.834 321.179 C 326.617 318.146,331.148 314.741,337.757 309.969 C 339.714 308.556,342.774 306.315,344.557 304.989 L 347.800 302.578 347.800 264.389 C 347.800 226.326,347.715 223.429,346.397 216.800 C 346.156 215.590,345.859 213.924,345.737 213.097 C 345.615 212.271,345.355 211.495,345.158 211.374 C 344.961 211.252,344.800 210.659,344.800 210.056 C 344.800 209.453,344.651 208.789,344.470 208.580 C 344.288 208.371,343.895 207.390,343.596 206.400 C 341.209 198.489,331.392 184.554,323.384 177.709 C 312.604 168.495,294.512 159.350,283.200 157.396 C 282.430 157.263,280.630 156.961,279.200 156.725 C 268.774 155.004,250.797 156.423,241.400 159.709 C 238.540 160.709,235.642 161.753,234.959 162.029 C 232.186 163.150,232.385 166.287,232.498 123.112 L 232.600 84.200 237.400 84.248 C 256.920 84.441,273.386 92.152,283.424 105.800 C 284.071 106.679,284.915 107.748,285.300 108.175 C 285.685 108.602,286.000 109.104,286.000 109.292 C 286.000 109.480,286.327 109.985,286.727 110.414 C 289.686 113.589,294.379 124.661,296.049 132.400 C 296.970 136.671,297.263 138.384,297.590 141.400 C 297.780 143.160,297.951 144.645,297.968 144.700 C 298.209 145.458,314.690 134.638,325.000 126.952 C 327.200 125.312,333.084 121.186,338.075 117.782 C 343.066 114.378,347.431 111.312,347.775 110.968 C 348.499 110.244,348.579 104.740,347.984 96.600 C 347.604 91.405,346.826 86.638,346.025 84.600 C 345.852 84.160,345.493 83.080,345.226 82.200 C 343.070 75.079,338.757 67.428,331.712 58.222 C 326.672 51.636,320.863 44.972,317.654 42.096 C 315.754 40.393,314.110 38.909,314.000 38.798 C 313.890 38.686,313.138 38.102,312.328 37.499 C 309.459 35.361,297.129 24.574,292.669 20.300 C 290.655 18.370,290.888 18.326,285.775 21.612 M75.080 24.606 C 66.179 25.745,58.785 28.694,51.477 34.021 C 48.276 36.355,40.005 44.598,37.451 48.000 C 36.543 49.210,35.665 50.260,35.500 50.333 C 35.335 50.407,35.200 50.660,35.200 50.896 C 35.200 51.131,34.741 51.926,34.180 52.662 L 33.159 54.000 34.700 54.000 C 35.547 54.000,36.411 53.839,36.620 53.642 C 37.795 52.534,50.745 52.540,51.430 53.649 C 51.549 53.842,51.974 54.000,52.373 54.000 C 56.035 54.000,62.100 60.776,64.905 68.000 C 65.119 68.550,65.450 69.309,65.642 69.686 C 65.972 70.338,66.291 71.475,67.300 75.600 C 67.613 76.880,67.807 114.003,67.970 204.200 C 68.097 273.940,68.349 331.230,68.530 331.511 C 68.870 332.036,66.724 334.400,65.909 334.400 C 65.293 334.400,57.222 338.398,55.400 339.605 C 54.520 340.188,53.530 340.778,53.200 340.915 C 52.372 341.260,45.502 346.097,41.745 348.982 C 33.603 355.232,15.739 377.584,20.300 375.814 C 25.069 373.964,32.614 371.779,37.700 370.775 C 42.391 369.849,43.991 369.569,46.800 369.183 C 61.690 367.132,78.074 367.737,91.200 370.821 C 92.190 371.053,93.720 371.389,94.600 371.567 C 95.480 371.745,97.100 372.186,98.200 372.548 C 99.300 372.910,100.830 373.408,101.600 373.654 C 106.183 375.118,118.262 380.528,120.200 381.984 C 120.991 382.578,122.424 382.720,122.907 382.251 C 123.178 381.989,124.030 381.332,124.800 380.793 C 125.570 380.253,127.628 378.662,129.373 377.255 C 133.133 374.226,142.351 367.334,146.009 364.817 C 147.434 363.837,149.680 362.208,151.000 361.198 C 152.320 360.188,154.660 358.476,156.200 357.394 C 157.740 356.312,159.090 355.317,159.200 355.183 C 159.310 355.049,160.032 354.503,160.805 353.970 C 166.635 349.946,167.801 348.620,166.100 347.948 C 165.495 347.709,164.687 347.353,164.305 347.157 C 163.923 346.961,163.426 346.800,163.201 346.800 C 162.976 346.800,161.938 346.422,160.896 345.960 C 158.934 345.091,157.578 344.519,156.200 343.980 C 146.514 340.189,135.224 333.388,129.051 327.626 C 127.140 325.842,123.200 320.450,123.200 319.618 C 123.200 319.388,123.020 319.200,122.800 319.200 C 122.580 319.200,122.400 318.851,122.400 318.424 C 122.400 317.997,122.220 317.536,122.000 317.400 C 121.780 317.264,121.600 316.743,121.600 316.243 C 121.600 315.743,121.471 315.205,121.314 315.047 C 120.818 314.551,119.971 311.120,119.525 307.800 C 119.232 305.620,119.009 266.655,118.823 185.600 C 118.523 54.380,118.710 63.405,116.021 50.336 C 113.854 39.804,103.680 27.600,97.066 27.600 C 96.726 27.600,96.349 27.441,96.229 27.246 C 96.108 27.051,95.513 26.798,94.905 26.683 C 94.297 26.568,92.645 26.182,91.232 25.826 C 88.845 25.223,80.301 23.945,79.400 24.055 C 79.180 24.082,77.236 24.330,75.080 24.606 " stroke="none" fill="#040404" fill-rule="evenodd"></path><path id="path2" d="M286.200 20.824 C 278.151 26.099,263.414 32.584,254.200 34.906 C 253.542 35.071,253.525 35.115,254.104 35.154 C 255.067 35.217,266.822 31.293,270.400 29.714 C 275.462 27.481,282.030 24.020,285.775 21.612 C 290.888 18.326,290.655 18.370,292.669 20.300 C 297.055 24.504,310.182 35.997,312.500 37.664 C 314.906 39.394,313.355 37.853,308.700 33.890 C 306.005 31.596,300.936 27.172,297.435 24.059 C 290.111 17.547,290.868 17.765,286.200 20.824 M74.600 24.097 C 66.729 25.154,57.558 28.937,51.200 33.750 C 46.018 37.673,33.953 50.438,35.473 50.390 C 35.653 50.384,36.378 49.529,37.084 48.490 C 39.021 45.639,48.214 36.398,51.477 34.020 C 63.629 25.167,77.385 22.332,91.232 25.826 C 92.645 26.182,94.297 26.568,94.905 26.683 C 95.513 26.798,96.108 27.051,96.229 27.246 C 96.349 27.441,96.726 27.600,97.066 27.600 C 103.681 27.600,113.880 39.836,116.017 50.336 C 116.874 54.545,117.592 59.248,118.010 63.394 C 118.254 65.810,118.532 67.865,118.627 67.960 C 118.929 68.262,118.809 66.345,118.205 61.200 C 117.409 54.430,117.046 52.409,115.688 47.200 C 111.641 31.672,93.624 21.541,74.600 24.097 M178.153 24.300 C 178.888 26.781,180.367 32.577,180.781 34.600 C 181.857 39.857,182.020 40.801,182.788 46.200 C 183.666 52.378,184.223 57.930,184.873 67.000 C 185.140 70.723,185.398 99.904,185.552 143.894 L 185.800 214.788 190.029 220.094 C 192.355 223.012,195.685 227.218,197.429 229.441 C 206.646 241.186,208.639 243.600,209.118 243.600 C 209.406 243.600,213.008 240.757,217.121 237.282 C 224.722 230.862,228.767 227.570,232.900 224.443 C 234.165 223.486,235.200 222.626,235.200 222.531 C 235.200 222.284,234.303 222.846,232.754 224.067 C 232.009 224.653,230.140 226.084,228.600 227.247 C 224.880 230.055,217.853 235.922,213.400 239.937 C 209.234 243.694,209.314 243.669,207.718 241.700 C 204.467 237.690,200.892 233.233,199.926 231.986 C 199.335 231.224,195.964 226.956,192.434 222.503 L 186.017 214.406 185.850 143.303 C 185.671 66.908,185.553 62.327,183.382 47.200 C 182.060 37.998,181.117 32.966,179.797 28.075 C 178.927 24.851,179.044 24.786,181.860 26.920 C 186.300 30.284,195.054 35.233,196.474 35.181 C 196.763 35.170,195.354 34.381,193.343 33.428 C 189.064 31.399,184.869 28.765,181.121 25.753 C 178.219 23.420,177.838 23.233,178.153 24.300 M197.341 35.474 C 197.726 35.859,200.477 36.790,201.200 36.780 C 201.530 36.775,200.817 36.418,199.615 35.986 C 197.235 35.130,196.927 35.060,197.341 35.474 M251.600 35.600 L 250.600 35.920 251.676 35.960 C 252.268 35.982,252.864 35.820,253.000 35.600 C 253.281 35.145,253.020 35.145,251.600 35.600 M248.600 36.400 C 247.493 36.682,247.477 36.709,248.400 36.747 C 248.950 36.769,249.670 36.613,250.000 36.400 C 250.681 35.960,250.329 35.960,248.600 36.400 M202.190 37.184 C 202.332 37.413,202.917 37.600,203.490 37.600 C 204.744 37.600,204.599 37.408,203.066 37.040 C 202.323 36.862,202.021 36.911,202.190 37.184 M245.200 37.200 L 244.200 37.520 245.200 37.554 C 245.750 37.573,246.470 37.413,246.800 37.200 C 247.564 36.706,246.742 36.706,245.200 37.200 M205.200 37.982 C 205.530 38.205,206.145 38.391,206.567 38.394 C 207.590 38.402,207.271 38.173,205.800 37.844 C 204.924 37.648,204.762 37.685,205.200 37.982 M241.400 38.000 L 240.200 38.305 241.400 38.347 C 242.060 38.369,242.870 38.213,243.200 38.000 C 243.943 37.520,243.287 37.520,241.400 38.000 M208.800 38.779 C 209.130 39.004,209.925 39.191,210.567 39.194 C 212.104 39.202,211.784 38.970,209.800 38.638 C 208.654 38.446,208.370 38.486,208.800 38.779 M236.600 38.800 L 235.400 39.105 236.600 39.125 C 237.260 39.135,238.160 38.989,238.600 38.800 L 239.400 38.456 238.600 38.475 C 238.160 38.486,237.260 38.632,236.600 38.800 M314.033 38.658 C 314.051 38.846,315.590 40.326,317.453 41.947 C 323.769 47.443,335.470 62.384,340.754 71.700 C 342.135 74.134,342.710 74.739,341.896 72.900 C 339.655 67.838,330.678 55.510,323.028 46.989 C 320.305 43.956,313.979 38.097,314.033 38.658 M214.600 39.598 C 215.358 39.926,219.520 40.161,219.167 39.856 C 219.075 39.777,217.830 39.608,216.400 39.482 C 214.790 39.340,214.105 39.384,214.600 39.598 M229.400 39.600 L 227.400 39.874 229.400 39.909 C 230.500 39.928,231.760 39.789,232.200 39.600 L 233.000 39.256 232.200 39.291 C 231.760 39.310,230.500 39.449,229.400 39.600 M33.675 52.675 C 32.221 54.910,32.224 54.919,34.240 54.446 L 35.800 54.080 34.480 54.040 L 33.159 54.000 34.235 52.589 C 34.827 51.813,35.221 51.088,35.111 50.977 C 35.000 50.867,34.354 51.631,33.675 52.675 M42.200 52.769 C 41.705 52.962,42.543 53.082,44.400 53.082 C 46.257 53.082,47.095 52.962,46.600 52.769 C 46.160 52.597,45.170 52.456,44.400 52.456 C 43.630 52.456,42.640 52.597,42.200 52.769 M36.604 53.594 C 36.452 53.840,36.855 53.894,37.680 53.737 C 39.449 53.400,39.601 53.200,38.090 53.200 C 37.407 53.200,36.738 53.377,36.604 53.594 M48.833 53.343 C 49.276 53.722,51.617 53.951,51.396 53.594 C 51.262 53.377,50.593 53.200,49.910 53.200 C 49.226 53.200,48.742 53.264,48.833 53.343 M54.227 55.149 C 57.135 56.525,60.046 59.370,62.100 62.844 C 62.925 64.240,63.600 65.228,63.600 65.040 C 63.600 62.252,55.264 53.999,52.450 54.000 C 52.092 54.000,52.892 54.517,54.227 55.149 M119.015 186.400 C 119.091 302.432,119.165 309.421,120.356 312.000 C 120.805 312.975,120.811 312.969,120.575 311.800 C 119.773 307.822,119.656 293.585,119.578 191.000 C 119.530 128.740,119.367 75.640,119.214 73.000 C 119.062 70.360,118.972 121.390,119.015 186.400 M65.385 70.200 C 65.551 70.640,65.945 72.170,66.261 73.600 C 66.577 75.030,67.006 76.959,67.213 77.888 C 67.541 79.353,67.836 332.759,67.510 332.992 C 67.449 333.036,65.086 334.191,62.257 335.560 C 59.429 336.928,57.189 338.123,57.280 338.214 C 57.371 338.305,59.236 337.488,61.423 336.398 C 63.610 335.308,65.606 334.413,65.858 334.408 C 66.720 334.393,68.880 332.051,68.530 331.511 C 68.349 331.230,68.097 273.940,67.970 204.200 C 67.807 114.003,67.613 76.880,67.300 75.600 C 66.159 70.936,65.925 70.173,65.518 69.800 C 65.209 69.517,65.170 69.633,65.385 70.200 M345.015 81.200 C 345.158 81.750,345.369 82.697,345.484 83.305 C 345.598 83.913,345.859 84.513,346.062 84.638 C 346.515 84.918,346.087 83.067,345.313 81.400 C 344.871 80.448,344.810 80.407,345.015 81.200 M232.667 84.267 C 232.520 84.413,232.400 101.969,232.400 123.279 C 232.400 166.247,232.195 163.148,234.959 162.028 C 235.642 161.751,238.589 160.705,241.508 159.704 C 246.923 157.846,248.185 157.235,244.599 158.208 C 241.535 159.039,240.469 159.395,236.905 160.777 C 235.093 161.479,233.428 161.941,233.205 161.803 C 232.936 161.637,232.800 148.591,232.800 122.923 L 232.800 84.294 238.094 84.485 C 241.005 84.590,243.030 84.537,242.594 84.366 C 241.616 83.984,233.035 83.898,232.667 84.267 M243.633 84.946 C 243.725 85.026,244.958 85.192,246.373 85.315 C 247.980 85.454,248.731 85.401,248.373 85.175 C 247.844 84.840,243.259 84.619,243.633 84.946 M346.406 86.033 C 346.409 86.565,346.589 87.270,346.806 87.600 C 347.082 88.022,347.123 87.785,346.942 86.800 C 346.625 85.075,346.398 84.749,346.406 86.033 M250.000 85.891 C 250.550 85.991,251.990 86.342,253.200 86.671 C 254.410 87.000,255.940 87.409,256.600 87.580 C 265.664 89.931,275.597 96.745,283.156 105.800 L 284.491 107.400 283.369 105.800 C 277.375 97.253,267.994 90.736,256.600 87.202 C 251.676 85.674,251.364 85.599,250.172 85.654 C 249.086 85.705,249.073 85.722,250.000 85.891 M347.467 90.200 C 347.593 91.300,347.831 94.000,347.995 96.200 L 348.295 100.200 348.177 96.000 C 348.113 93.690,347.875 90.990,347.649 90.000 L 347.237 88.200 347.467 90.200 M285.045 108.612 C 285.410 109.169,285.786 109.547,285.882 109.451 C 286.119 109.214,285.084 107.600,284.695 107.600 C 284.522 107.600,284.680 108.056,285.045 108.612 M287.217 111.825 C 290.072 115.974,294.713 127.385,295.586 132.400 C 295.759 133.390,296.185 135.550,296.532 137.200 C 296.880 138.850,297.241 140.920,297.334 141.800 C 297.428 142.680,297.450 142.230,297.385 140.800 C 297.220 137.192,296.238 132.411,294.397 126.246 C 292.750 120.732,287.394 110.000,286.289 110.000 C 286.109 110.000,286.527 110.821,287.217 111.825 M347.721 110.976 C 347.457 111.277,343.587 113.995,339.121 117.018 C 334.654 120.041,330.100 123.180,329.000 123.993 C 327.900 124.807,324.840 127.058,322.200 128.995 C 317.543 132.413,315.918 133.706,317.200 132.975 C 317.530 132.787,321.220 130.187,325.400 127.197 C 329.580 124.208,334.980 120.412,337.400 118.762 C 345.590 113.177,348.400 111.135,348.400 110.767 C 348.400 110.288,348.297 110.319,347.721 110.976 M307.691 139.017 C 299.028 144.905,298.198 145.334,297.876 144.100 C 297.763 143.669,297.675 143.823,297.646 144.500 C 297.616 145.209,297.803 145.600,298.172 145.600 C 298.708 145.600,316.400 133.724,316.400 133.365 C 316.400 133.094,316.508 133.024,307.691 139.017 M261.900 155.898 C 264.155 155.970,267.845 155.970,270.100 155.898 C 272.355 155.827,270.510 155.769,266.000 155.769 C 261.490 155.769,259.645 155.827,261.900 155.898 M253.400 156.400 L 252.200 156.705 253.400 156.747 C 254.060 156.769,254.870 156.613,255.200 156.400 C 255.943 155.920,255.287 155.920,253.400 156.400 M276.800 156.388 C 277.130 156.608,278.015 156.791,278.767 156.794 C 280.560 156.802,280.241 156.575,278.000 156.250 C 276.742 156.067,276.381 156.109,276.800 156.388 M248.800 157.200 C 247.976 157.464,247.941 157.526,248.600 157.554 C 249.040 157.573,249.670 157.413,250.000 157.200 C 250.701 156.747,250.214 156.747,248.800 157.200 M282.000 157.200 C 282.330 157.413,282.960 157.578,283.400 157.566 L 284.200 157.544 283.400 157.200 C 282.204 156.686,281.205 156.686,282.000 157.200 M285.600 157.729 C 285.600 157.847,286.905 158.338,288.500 158.820 C 312.351 166.028,330.606 180.505,340.908 200.381 C 343.064 204.541,343.492 205.222,342.799 203.392 C 335.533 184.193,310.059 163.229,287.937 158.243 C 287.353 158.111,286.588 157.893,286.237 157.759 C 285.887 157.624,285.600 157.611,285.600 157.729 M344.800 210.176 C 344.800 210.713,344.947 211.244,345.128 211.355 C 345.308 211.467,345.377 211.027,345.282 210.379 C 345.072 208.949,344.800 208.835,344.800 210.176 M345.781 213.200 C 346.218 216.503,346.675 218.808,346.946 219.079 C 347.322 219.455,346.855 216.368,346.147 213.800 C 345.766 212.418,345.653 212.232,345.781 213.200 M259.300 213.087 C 259.905 213.178,260.895 213.178,261.500 213.087 C 262.105 212.995,261.610 212.920,260.400 212.920 C 259.190 212.920,258.695 212.995,259.300 213.087 M254.400 213.618 C 253.962 213.915,254.124 213.952,255.000 213.756 C 256.471 213.427,256.790 213.198,255.767 213.206 C 255.345 213.209,254.730 213.395,254.400 213.618 M264.400 213.600 C 265.942 214.094,266.764 214.094,266.000 213.600 C 265.670 213.387,264.950 213.227,264.400 213.246 L 263.400 213.280 264.400 213.600 M250.800 214.418 C 250.362 214.715,250.524 214.752,251.400 214.556 C 252.871 214.227,253.190 213.998,252.167 214.006 C 251.745 214.009,251.130 214.195,250.800 214.418 M248.200 215.200 C 247.908 215.673,248.299 215.673,249.400 215.200 C 250.171 214.869,250.169 214.855,249.324 214.828 C 248.842 214.813,248.336 214.980,248.200 215.200 M271.567 215.816 C 284.059 221.631,295.081 239.331,296.787 256.316 C 297.288 261.312,297.338 312.763,296.842 313.546 C 296.568 313.978,295.278 314.060,290.647 313.940 C 287.430 313.857,285.114 313.914,285.499 314.066 C 286.488 314.458,296.493 314.456,297.110 314.064 C 297.755 313.655,297.545 256.949,296.883 252.800 C 295.089 241.553,289.228 230.389,280.693 221.957 C 277.328 218.633,271.540 214.792,269.916 214.804 C 269.632 214.806,270.375 215.262,271.567 215.816 M244.600 216.675 C 241.258 218.330,236.500 221.196,235.934 221.896 C 235.640 222.259,236.300 221.940,237.400 221.187 C 238.500 220.435,241.290 218.870,243.600 217.710 C 245.910 216.550,247.530 215.620,247.200 215.643 C 246.870 215.666,245.700 216.130,244.600 216.675 M347.537 223.000 C 347.676 224.760,347.792 243.385,347.795 264.389 L 347.800 302.578 344.557 304.989 C 342.774 306.315,339.714 308.556,337.757 309.969 C 331.148 314.741,326.617 318.146,322.834 321.179 C 317.623 325.359,316.024 326.568,311.200 329.975 C 307.318 332.717,296.375 340.879,283.168 350.885 C 278.236 354.621,263.778 365.381,252.643 373.601 C 247.663 377.277,248.365 377.221,242.600 374.404 C 233.965 370.184,223.612 362.702,215.200 354.602 C 201.817 341.716,196.715 334.724,189.662 319.600 L 189.196 318.600 189.445 319.600 C 193.649 336.504,227.182 370.221,246.137 376.605 C 248.637 377.446,247.148 378.338,262.666 366.710 C 270.110 361.132,278.386 354.956,281.057 352.984 C 283.729 351.013,291.309 345.350,297.902 340.400 C 304.495 335.450,312.839 329.201,316.445 326.512 C 320.050 323.824,325.797 319.504,329.215 316.912 C 332.633 314.321,338.213 310.143,341.615 307.629 C 345.017 305.115,347.935 302.865,348.100 302.629 C 348.554 301.982,348.156 225.033,347.684 222.200 C 347.302 219.902,347.296 219.936,347.537 223.000 M227.905 257.700 C 218.147 264.857,206.893 273.209,196.400 281.079 L 185.800 289.030 185.669 295.415 C 185.489 304.178,187.050 315.215,188.864 318.000 C 189.274 318.629,189.180 318.121,188.346 315.200 C 186.722 309.509,186.379 306.732,186.144 297.384 L 185.943 289.367 190.471 286.007 C 192.962 284.159,197.070 281.120,199.600 279.255 C 202.130 277.390,205.640 274.779,207.400 273.453 C 214.121 268.391,223.105 261.678,225.600 259.855 C 227.030 258.810,228.488 257.720,228.841 257.433 C 230.482 256.092,232.566 254.855,232.867 255.041 C 233.050 255.155,233.200 254.967,233.200 254.624 C 233.200 253.768,233.516 253.585,227.905 257.700 M233.206 258.633 C 233.209 259.275,233.396 260.070,233.621 260.400 C 233.914 260.830,233.954 260.546,233.762 259.400 C 233.430 257.416,233.198 257.096,233.206 258.633 M234.006 263.233 C 234.009 263.985,234.177 264.861,234.379 265.179 C 234.616 265.554,234.665 265.130,234.518 263.979 C 234.235 261.770,233.998 261.425,234.006 263.233 M234.800 267.176 C 234.800 267.823,234.942 268.441,235.116 268.548 C 235.290 268.656,235.361 268.127,235.273 267.372 C 235.076 265.691,234.800 265.577,234.800 267.176 M235.651 269.800 C 235.584 271.069,238.189 278.037,240.359 282.395 C 246.012 293.749,255.434 303.398,265.707 308.353 C 271.026 310.919,280.208 313.656,283.106 313.540 C 284.441 313.487,284.472 313.463,283.400 313.319 C 260.825 310.297,241.052 292.190,235.878 269.800 L 235.693 269.000 235.651 269.800 M125.929 324.000 C 127.363 326.201,130.039 328.739,134.004 331.658 C 138.510 334.977,145.547 339.387,145.850 339.083 C 145.935 338.998,144.397 337.970,142.434 336.798 C 135.999 332.957,128.658 327.108,125.869 323.600 C 124.762 322.208,124.762 322.211,125.929 324.000 M54.200 339.849 C 40.301 348.229,30.343 357.843,21.530 371.388 C 17.873 377.009,17.913 377.162,22.610 375.545 C 31.081 372.631,35.912 371.412,46.200 369.595 L 48.200 369.242 46.000 369.412 C 42.491 369.684,36.157 370.953,30.200 372.577 C 28.071 373.158,22.194 375.079,20.300 375.814 C 17.409 376.936,27.265 363.157,35.345 354.782 C 39.423 350.555,49.688 342.659,53.800 340.587 C 55.033 339.966,57.157 338.424,56.800 338.410 C 56.690 338.406,55.520 339.053,54.200 339.849 M149.768 341.148 C 149.922 341.397,150.212 341.600,150.413 341.600 C 150.730 341.600,153.440 342.755,156.299 344.109 C 156.794 344.343,157.292 344.441,157.406 344.327 C 157.577 344.157,155.815 343.345,149.851 340.848 C 149.652 340.765,149.614 340.900,149.768 341.148 M160.000 345.414 C 160.000 345.693,162.906 346.831,163.291 346.703 C 163.482 346.639,162.820 346.284,161.819 345.913 C 160.819 345.542,160.000 345.317,160.000 345.414 M166.624 348.173 C 167.136 348.551,167.264 348.877,167.000 349.132 C 166.047 350.050,161.304 353.722,160.300 354.319 C 159.695 354.678,159.200 355.119,159.200 355.299 C 159.200 355.673,165.234 351.319,167.800 349.093 C 168.212 348.736,167.030 347.600,166.247 347.600 C 166.027 347.600,166.196 347.858,166.624 348.173 M157.400 356.492 C 156.740 356.969,154.220 358.821,151.800 360.609 C 149.380 362.397,146.504 364.476,145.408 365.230 C 141.927 367.625,129.463 377.073,127.800 378.577 C 126.920 379.373,130.986 376.464,136.836 372.112 C 142.685 367.761,150.020 362.332,153.136 360.050 C 158.041 356.456,159.174 355.553,158.700 355.613 C 158.645 355.620,158.060 356.015,157.400 356.492 M60.078 368.298 C 62.431 368.369,66.391 368.369,68.878 368.299 C 71.365 368.229,69.440 368.171,64.600 368.170 C 59.760 368.170,57.725 368.228,60.078 368.298 M49.600 368.813 C 48.999 369.013,49.878 369.056,51.800 368.919 C 53.560 368.794,55.075 368.626,55.167 368.546 C 55.501 368.253,50.571 368.489,49.600 368.813 M74.433 368.546 C 74.525 368.626,76.040 368.794,77.800 368.919 C 79.722 369.056,80.601 369.013,80.000 368.813 C 79.029 368.489,74.099 368.253,74.433 368.546 M85.323 369.994 C 95.138 371.934,104.722 374.905,111.874 378.224 C 115.895 380.091,117.587 380.467,113.913 378.678 C 108.295 375.941,98.725 372.421,94.600 371.573 C 93.720 371.392,92.190 371.053,91.200 370.819 C 87.728 370.001,85.382 369.573,83.400 369.396 C 82.300 369.298,83.165 369.567,85.323 369.994 M124.505 380.925 C 123.793 381.406,123.208 381.947,123.205 382.127 C 123.199 382.488,125.435 380.990,125.812 380.381 C 126.134 379.860,125.996 379.917,124.505 380.925 M121.339 382.852 C 121.768 383.102,122.226 383.134,122.432 382.928 C 122.638 382.722,122.329 382.541,121.693 382.497 C 120.734 382.430,120.690 382.473,121.339 382.852 " stroke="none" fill="#5d5853" fill-rule="evenodd"></path><path id="path3" d="M288.500 18.846 C 287.785 19.304,287.200 19.766,287.200 19.872 C 287.200 19.978,287.806 19.691,288.547 19.233 C 290.641 17.939,290.805 18.029,298.115 24.500 C 301.905 27.855,308.155 33.289,312.003 36.575 C 319.742 43.184,321.081 44.513,326.745 51.200 C 333.967 59.726,338.560 66.278,341.786 72.656 C 342.772 74.605,343.583 75.992,343.589 75.738 C 343.703 70.820,326.219 48.339,314.200 37.951 C 311.560 35.669,309.310 33.706,309.200 33.588 C 309.090 33.470,306.300 31.043,303.000 28.195 C 299.700 25.347,296.910 22.923,296.800 22.809 C 292.815 18.653,290.516 17.555,288.500 18.846 M284.000 21.667 C 276.370 26.377,263.021 31.888,251.648 35.022 C 249.365 35.651,247.685 36.228,247.914 36.305 C 248.823 36.608,261.049 32.769,268.019 29.993 C 274.117 27.563,285.600 21.671,285.600 20.971 C 285.600 20.701,285.483 20.752,284.000 21.667 M177.200 23.024 C 177.200 23.367,177.370 23.542,177.577 23.414 C 177.784 23.286,179.989 24.725,182.477 26.611 C 186.904 29.968,197.719 35.894,198.775 35.542 C 199.025 35.458,198.007 34.874,196.514 34.243 C 190.893 31.865,182.460 26.591,178.917 23.236 C 177.869 22.244,177.200 22.161,177.200 23.024 M73.000 23.817 C 59.724 25.996,48.728 32.912,38.367 45.600 C 34.220 50.678,35.289 49.690,40.849 43.306 C 56.927 24.844,77.804 19.119,98.638 27.459 C 108.184 31.281,116.709 43.128,117.246 53.320 C 117.284 54.035,117.328 54.064,117.481 53.474 C 118.254 50.486,113.113 38.600,109.180 34.283 C 101.675 26.044,86.384 21.620,73.000 23.817 M177.722 24.600 C 177.819 25.040,178.352 27.110,178.906 29.200 C 180.887 36.679,182.660 47.991,183.608 59.200 C 184.786 73.133,184.898 79.736,185.082 146.000 L 185.275 215.000 189.937 220.855 C 192.502 224.075,197.750 230.687,201.600 235.549 C 205.450 240.410,208.780 244.389,209.000 244.391 C 209.220 244.392,213.090 241.321,217.600 237.566 C 234.185 223.757,237.005 221.663,243.800 218.115 C 248.503 215.660,248.608 215.277,243.940 217.606 C 239.893 219.625,235.957 222.158,231.600 225.546 C 228.135 228.241,213.964 239.934,213.600 240.399 C 213.490 240.539,212.415 241.426,211.211 242.369 L 209.022 244.084 207.703 242.542 C 206.978 241.694,204.275 238.300,201.696 235.000 C 199.118 231.700,194.441 225.779,191.304 221.842 L 185.600 214.685 185.600 150.316 C 185.600 80.247,185.226 64.848,183.166 50.000 C 181.585 38.609,179.023 26.066,177.936 24.400 C 177.624 23.920,177.581 23.961,177.722 24.600 M200.000 36.000 C 200.330 36.213,200.870 36.388,201.200 36.388 C 201.733 36.388,201.733 36.345,201.200 36.000 C 200.870 35.787,200.330 35.612,200.000 35.612 C 199.467 35.612,199.467 35.655,200.000 36.000 M202.400 36.800 C 202.730 37.013,203.360 37.178,203.800 37.166 L 204.600 37.144 203.800 36.800 C 202.604 36.286,201.605 36.286,202.400 36.800 M244.600 36.800 L 243.800 37.144 244.600 37.132 C 245.040 37.126,245.850 36.976,246.400 36.800 L 247.400 36.480 246.400 36.468 C 245.850 36.462,245.040 36.611,244.600 36.800 M205.400 37.600 C 205.840 37.789,206.560 37.944,207.000 37.944 L 207.800 37.944 207.000 37.600 C 206.560 37.411,205.840 37.256,205.400 37.256 L 204.600 37.256 205.400 37.600 M240.800 37.600 L 239.800 37.920 240.800 37.920 C 241.350 37.920,242.250 37.776,242.800 37.600 L 243.800 37.280 242.800 37.280 C 242.250 37.280,241.350 37.424,240.800 37.600 M210.400 38.629 C 213.594 39.365,227.367 39.798,231.600 39.295 C 233.816 39.032,232.510 38.985,226.600 39.115 C 222.004 39.216,217.068 39.103,215.000 38.849 C 208.097 38.001,207.567 37.976,210.400 38.629 M236.000 38.400 C 234.938 38.624,234.841 38.702,235.600 38.724 C 236.150 38.741,237.320 38.605,238.200 38.423 C 239.534 38.147,239.600 38.093,238.600 38.099 C 237.940 38.102,236.770 38.238,236.000 38.400 M33.622 51.865 C 31.486 54.848,32.179 56.564,34.800 54.779 C 35.233 54.484,34.982 54.443,33.900 54.630 C 32.036 54.952,32.039 54.888,34.015 51.978 C 36.070 48.951,35.770 48.865,33.622 51.865 M42.512 53.495 C 43.564 53.577,45.184 53.576,46.112 53.492 C 47.040 53.408,46.180 53.341,44.200 53.342 C 42.220 53.343,41.460 53.412,42.512 53.495 M36.800 54.000 C 36.008 54.254,35.967 54.320,36.600 54.320 C 37.040 54.320,37.850 54.176,38.400 54.000 C 39.192 53.746,39.233 53.680,38.600 53.680 C 38.160 53.680,37.350 53.824,36.800 54.000 M49.800 54.000 C 50.996 54.514,51.995 54.514,51.200 54.000 C 50.870 53.787,50.240 53.622,49.800 53.634 L 49.000 53.656 49.800 54.000 M53.297 55.180 C 55.967 56.513,58.727 58.792,60.250 60.920 C 62.226 63.680,62.633 64.080,61.812 62.454 C 60.342 59.544,54.307 54.369,52.438 54.416 C 52.087 54.425,52.474 54.768,53.297 55.180 M117.869 56.600 C 117.996 57.920,118.168 59.075,118.250 59.167 C 118.541 59.490,118.316 56.186,117.979 55.200 C 117.758 54.552,117.720 55.045,117.869 56.600 M118.473 61.800 C 118.458 62.680,118.595 64.120,118.777 65.000 L 119.108 66.600 119.124 65.200 C 119.133 64.430,118.997 62.990,118.820 62.000 L 118.500 60.200 118.473 61.800 M64.195 68.200 C 65.424 71.841,66.222 74.773,66.536 76.800 C 66.667 77.647,66.699 77.610,66.746 76.560 C 66.775 75.878,66.639 74.798,66.441 74.160 C 66.244 73.522,65.790 72.010,65.432 70.800 C 65.074 69.590,64.588 68.330,64.353 68.000 C 64.008 67.518,63.977 67.557,64.195 68.200 M119.502 178.200 C 119.558 238.480,119.651 291.580,119.710 296.200 C 119.769 300.820,119.834 252.850,119.856 189.600 C 119.878 126.350,119.784 73.250,119.648 71.600 C 119.511 69.950,119.446 117.920,119.502 178.200 M67.101 182.276 C 67.156 239.654,67.247 296.410,67.304 308.400 C 67.361 320.390,67.432 273.860,67.464 205.000 C 67.495 136.140,67.403 79.384,67.260 78.876 C 67.117 78.368,67.045 124.898,67.101 182.276 M346.012 83.200 C 346.012 83.530,346.187 84.070,346.400 84.400 C 346.745 84.933,346.788 84.933,346.788 84.400 C 346.788 84.070,346.613 83.530,346.400 83.200 C 346.055 82.667,346.012 82.667,346.012 83.200 M233.067 84.667 C 232.351 85.383,232.780 161.600,233.500 161.602 C 234.346 161.604,240.085 159.552,239.861 159.327 C 239.773 159.240,238.488 159.626,237.003 160.184 C 235.519 160.743,234.055 161.200,233.750 161.200 C 233.281 161.200,233.212 155.356,233.298 123.100 L 233.400 85.000 238.400 85.064 C 242.194 85.112,242.918 85.048,241.400 84.799 C 238.927 84.392,233.428 84.305,233.067 84.667 M245.400 85.623 C 246.280 85.805,247.450 85.946,248.000 85.937 L 249.000 85.920 248.000 85.600 C 247.450 85.424,246.280 85.283,245.400 85.286 L 243.800 85.292 245.400 85.623 M346.856 85.800 C 346.856 86.240,347.011 86.960,347.200 87.400 L 347.544 88.200 347.544 87.400 C 347.544 86.960,347.389 86.240,347.200 85.800 L 346.856 85.000 346.856 85.800 M253.255 87.202 C 263.710 90.008,270.603 93.897,278.381 101.378 C 282.324 105.172,282.420 105.238,280.077 102.543 C 273.204 94.636,256.819 85.727,249.707 86.030 C 249.318 86.047,250.915 86.574,253.255 87.202 M347.675 89.400 C 347.665 90.060,347.811 90.960,348.000 91.400 L 348.344 92.200 348.325 91.400 C 348.314 90.960,348.168 90.060,348.000 89.400 L 347.695 88.200 347.675 89.400 M348.694 101.600 C 348.784 106.550,348.710 110.792,348.529 111.027 C 348.348 111.262,344.060 114.314,339.000 117.810 C 333.940 121.306,327.640 125.713,325.000 127.604 C 311.183 137.499,298.335 146.095,297.944 145.704 C 297.742 145.502,297.413 144.001,297.214 142.368 C 295.844 131.160,292.818 121.787,287.635 112.700 C 286.914 111.435,286.183 110.313,286.011 110.207 C 285.839 110.100,286.659 111.754,287.835 113.881 C 292.455 122.243,295.877 133.512,297.011 144.100 C 297.322 147.005,297.734 147.040,301.429 144.481 C 302.953 143.425,308.610 139.496,314.000 135.749 C 319.390 132.002,326.860 126.810,330.600 124.212 C 342.958 115.624,348.194 111.878,348.700 111.259 C 349.259 110.575,349.350 98.704,348.825 94.800 C 348.663 93.590,348.604 96.650,348.694 101.600 M283.375 106.932 C 283.991 107.739,284.576 108.400,284.675 108.400 C 284.953 108.400,283.221 106.060,282.709 105.744 C 282.459 105.589,282.759 106.124,283.375 106.932 M262.000 155.202 C 259.768 155.391,260.835 155.474,266.167 155.528 C 270.108 155.568,273.258 155.535,273.167 155.456 C 272.807 155.144,264.834 154.963,262.000 155.202 M253.200 156.000 C 251.856 156.431,253.308 156.431,255.000 156.000 C 256.078 155.726,256.098 155.694,255.200 155.687 C 254.650 155.683,253.750 155.824,253.200 156.000 M275.633 155.749 C 275.725 155.831,276.700 156.001,277.800 156.128 C 279.149 156.284,279.474 156.249,278.800 156.020 C 277.801 155.680,275.318 155.468,275.633 155.749 M248.600 156.819 C 248.042 157.071,248.285 157.107,249.400 156.938 C 250.280 156.804,251.075 156.628,251.167 156.547 C 251.510 156.244,249.368 156.471,248.600 156.819 M282.000 156.800 C 282.550 156.976,283.360 157.120,283.800 157.120 C 284.433 157.120,284.392 157.054,283.600 156.800 C 283.050 156.624,282.240 156.480,281.800 156.480 C 281.167 156.480,281.208 156.546,282.000 156.800 M243.000 158.227 C 239.893 159.289,240.725 159.203,245.000 158.022 C 246.540 157.596,247.350 157.253,246.800 157.259 C 246.250 157.265,244.540 157.700,243.000 158.227 M289.400 158.612 C 290.280 158.929,291.270 159.177,291.600 159.164 C 292.442 159.129,289.577 158.064,288.600 158.048 C 288.160 158.041,288.520 158.295,289.400 158.612 M294.800 160.113 C 294.910 160.230,296.620 160.989,298.600 161.800 C 316.209 169.013,331.174 181.877,339.894 197.297 C 341.045 199.334,341.990 200.845,341.994 200.655 C 342.001 200.250,339.897 196.328,337.994 193.200 C 331.807 183.030,319.500 171.947,307.200 165.467 C 301.715 162.577,293.973 159.235,294.800 160.113 M342.607 202.679 C 343.207 204.114,343.600 204.762,343.600 204.316 C 343.600 203.884,342.385 201.200,342.189 201.200 C 342.079 201.200,342.267 201.866,342.607 202.679 M345.212 210.000 C 345.212 210.330,345.387 210.870,345.600 211.200 C 345.945 211.733,345.988 211.733,345.988 211.200 C 345.988 210.870,345.813 210.330,345.600 210.000 C 345.255 209.467,345.212 209.467,345.212 210.000 M346.034 213.000 C 346.022 213.440,346.187 214.070,346.400 214.400 C 346.914 215.195,346.914 214.196,346.400 213.000 L 346.056 212.200 346.034 213.000 M259.100 213.489 C 259.815 213.578,260.985 213.578,261.700 213.489 C 262.415 213.401,261.830 213.328,260.400 213.328 C 258.970 213.328,258.385 213.401,259.100 213.489 M254.400 214.000 C 253.608 214.254,253.567 214.320,254.200 214.320 C 254.640 214.320,255.450 214.176,256.000 214.000 C 256.792 213.746,256.833 213.680,256.200 213.680 C 255.760 213.680,254.950 213.824,254.400 214.000 M346.868 216.600 C 346.874 217.040,347.024 217.850,347.200 218.400 L 347.520 219.400 347.532 218.400 C 347.538 217.850,347.389 217.040,347.200 216.600 L 346.856 215.800 346.868 216.600 M273.200 216.937 C 273.200 217.023,273.965 217.597,274.900 218.213 C 280.310 221.776,288.172 231.486,291.326 238.500 C 291.697 239.325,292.261 240.585,292.579 241.300 C 293.375 243.086,294.668 247.240,295.474 250.600 C 296.381 254.383,296.794 312.441,295.921 313.498 C 295.485 314.028,295.497 314.098,296.000 313.932 C 296.864 313.646,296.904 255.331,296.043 251.000 C 293.873 240.079,286.192 226.892,278.083 220.163 C 275.663 218.156,273.200 216.528,273.200 216.937 M347.669 221.200 C 347.656 221.970,347.795 223.320,347.977 224.200 L 348.308 225.800 348.331 224.400 C 348.344 223.630,348.205 222.280,348.023 221.400 L 347.692 219.800 347.669 221.200 M348.498 264.635 L 348.400 302.669 334.428 313.128 C 326.743 318.881,320.318 323.815,320.151 324.093 C 319.919 324.480,319.984 324.495,320.423 324.160 C 320.740 323.918,327.176 319.088,334.725 313.427 C 342.274 307.765,348.531 302.924,348.628 302.667 C 348.726 302.410,348.759 285.190,348.701 264.400 L 348.596 226.600 348.498 264.635 M230.776 254.935 C 229.799 255.678,226.099 258.426,222.553 261.043 C 208.515 271.401,190.572 284.706,188.056 286.624 L 185.400 288.649 185.286 296.624 C 185.149 306.160,185.708 310.442,187.978 317.231 C 189.942 323.105,194.739 332.750,194.787 330.924 C 194.794 330.662,194.640 330.348,194.445 330.228 C 193.901 329.891,190.180 322.154,189.046 319.000 C 186.385 311.603,185.615 306.633,185.608 296.800 L 185.603 289.000 200.501 277.905 C 237.059 250.680,233.069 253.453,233.312 255.100 C 233.472 256.184,233.474 256.183,233.437 255.031 C 233.385 253.397,232.824 253.377,230.776 254.935 M233.687 258.200 C 233.691 258.640,233.832 259.540,234.000 260.200 C 234.274 261.278,234.306 261.298,234.313 260.400 C 234.317 259.850,234.176 258.950,234.000 258.400 C 233.749 257.616,233.681 257.573,233.687 258.200 M234.456 263.400 C 234.456 263.840,234.611 264.560,234.800 265.000 L 235.144 265.800 235.144 265.000 C 235.144 264.560,234.989 263.840,234.800 263.400 L 234.456 262.600 234.456 263.400 M236.012 270.000 C 236.012 270.330,236.187 270.870,236.400 271.200 C 236.745 271.733,236.788 271.733,236.788 271.200 C 236.788 270.870,236.613 270.330,236.400 270.000 C 236.055 269.467,236.012 269.467,236.012 270.000 M237.013 273.300 C 240.944 286.532,252.495 300.783,264.400 307.089 C 270.108 310.112,280.163 313.274,283.697 313.157 C 284.492 313.130,283.834 312.901,282.007 312.568 C 261.176 308.770,245.513 295.358,238.018 274.900 C 237.143 272.511,236.452 271.411,237.013 273.300 M120.040 307.833 C 120.062 308.695,120.227 309.850,120.407 310.400 C 120.611 311.021,120.651 310.491,120.512 309.000 C 120.254 306.221,119.982 305.549,120.040 307.833 M286.200 313.596 C 287.386 313.902,295.089 314.135,294.767 313.856 C 294.675 313.776,292.440 313.616,289.800 313.499 C 287.160 313.383,285.540 313.426,286.200 313.596 M121.617 315.158 C 121.587 316.129,124.300 321.343,125.593 322.800 C 126.631 323.969,126.566 323.792,125.201 321.727 C 124.302 320.367,123.132 318.207,122.600 316.927 C 122.069 315.647,121.626 314.851,121.617 315.158 M128.000 325.755 C 132.529 330.697,144.858 338.688,153.800 342.478 C 154.680 342.851,156.280 343.531,157.357 343.988 C 158.433 344.446,159.403 344.731,159.512 344.621 C 159.621 344.512,159.191 344.226,158.555 343.987 C 148.120 340.051,136.653 333.145,128.400 325.825 L 126.600 324.228 128.000 325.755 M318.000 325.649 C 316.606 326.871,316.605 326.872,317.888 326.019 C 318.596 325.548,319.282 324.991,319.412 324.781 C 319.797 324.157,319.477 324.354,318.000 325.649 M313.958 328.513 C 312.724 329.441,308.314 332.714,304.158 335.788 C 294.650 342.817,284.800 350.376,284.800 350.642 C 284.800 350.888,283.132 352.118,301.310 338.476 C 314.348 328.692,316.860 326.738,316.300 326.813 C 316.245 326.821,315.191 327.586,313.958 328.513 M67.632 331.432 C 67.606 332.095,66.362 332.882,61.500 335.311 C 43.958 344.075,30.172 356.519,19.900 372.861 C 16.457 378.338,16.412 378.302,23.600 375.803 C 36.905 371.178,49.822 369.054,64.600 369.061 C 81.158 369.068,89.617 370.654,109.000 377.383 C 109.779 377.653,109.779 377.647,109.027 377.170 C 107.839 376.415,98.808 373.326,94.684 372.264 C 88.825 370.754,84.163 369.836,78.800 369.137 C 73.759 368.479,55.283 368.469,50.600 369.122 C 40.103 370.584,32.381 372.369,23.534 375.378 C 17.553 377.412,17.577 377.434,20.597 372.623 C 30.827 356.329,44.073 344.490,62.115 335.515 C 67.455 332.859,68.308 332.206,67.869 331.113 C 67.756 330.831,67.649 330.974,67.632 331.432 M195.340 332.652 C 201.583 345.038,227.021 368.193,242.592 375.665 C 248.607 378.551,246.665 379.412,264.800 365.812 C 273.490 359.295,281.455 353.322,282.500 352.538 C 283.545 351.755,284.400 351.021,284.400 350.908 C 284.400 350.795,284.175 350.880,283.900 351.097 C 283.625 351.314,280.250 353.798,276.400 356.617 C 272.550 359.435,264.761 365.243,259.091 369.522 C 247.147 378.536,248.463 378.122,242.064 374.883 C 226.968 367.243,207.902 350.324,197.798 335.600 C 195.100 331.670,194.453 330.893,195.340 332.652 M164.800 346.895 C 169.259 348.859,169.315 348.310,164.286 351.992 C 155.465 358.451,150.473 362.147,137.000 372.200 C 129.300 377.945,122.783 382.777,122.517 382.936 C 122.251 383.096,120.594 382.502,118.826 381.613 C 117.061 380.726,115.479 380.009,115.309 380.020 C 115.139 380.031,116.583 380.847,118.517 381.833 C 120.452 382.819,122.252 383.498,122.517 383.341 C 123.214 382.929,136.362 373.223,149.800 363.200 C 156.180 358.442,163.155 353.250,165.300 351.663 C 167.445 350.076,169.200 348.682,169.200 348.566 C 169.200 348.273,164.886 346.394,164.289 346.427 C 164.020 346.442,164.250 346.652,164.800 346.895 M110.000 377.795 C 110.000 378.088,112.895 379.238,113.105 379.029 C 113.205 378.929,112.615 378.566,111.794 378.223 C 110.168 377.544,110.000 377.504,110.000 377.795 M246.700 396.293 C 247.635 396.377,249.165 396.377,250.100 396.293 C 251.035 396.209,250.270 396.140,248.400 396.140 C 246.530 396.140,245.765 396.209,246.700 396.293 " stroke="none" fill="#847c75" fill-rule="evenodd"></path><path id="path4" d="M44.189 39.700 L 41.400 42.600 44.300 39.811 C 45.895 38.277,47.200 36.972,47.200 36.911 C 47.200 36.617,46.780 37.006,44.189 39.700 M221.315 39.896 C 222.588 39.976,224.568 39.975,225.715 39.894 C 226.862 39.814,225.820 39.749,223.400 39.750 C 220.980 39.751,220.042 39.816,221.315 39.896 M184.501 64.200 C 184.505 65.080,184.587 65.393,184.683 64.895 C 184.779 64.398,184.775 63.678,184.675 63.295 C 184.575 62.913,184.496 63.320,184.501 64.200 M185.324 80.200 C 185.326 81.520,185.401 82.012,185.490 81.293 C 185.579 80.574,185.577 79.494,185.486 78.893 C 185.395 78.292,185.322 78.880,185.324 80.200 M348.563 104.400 C 348.563 108.030,348.623 109.515,348.698 107.700 C 348.772 105.885,348.772 102.915,348.698 101.100 C 348.623 99.285,348.563 100.770,348.563 104.400 M296.989 286.000 C 296.989 301.070,297.039 307.235,297.100 299.700 C 297.161 292.165,297.161 279.835,297.100 272.300 C 297.039 264.765,296.989 270.930,296.989 286.000 M205.200 345.325 C 205.200 345.394,205.785 345.979,206.500 346.625 L 207.800 347.800 206.625 346.500 C 205.530 345.288,205.200 345.016,205.200 345.325 M32.575 356.900 L 31.400 358.200 32.700 357.025 C 33.912 355.930,34.184 355.600,33.875 355.600 C 33.806 355.600,33.221 356.185,32.575 356.900 M55.905 368.683 C 56.402 368.779,57.122 368.775,57.505 368.675 C 57.887 368.575,57.480 368.496,56.600 368.501 C 55.720 368.505,55.407 368.587,55.905 368.683 M71.705 368.687 C 72.314 368.779,73.214 368.777,73.705 368.682 C 74.197 368.587,73.700 368.511,72.600 368.514 C 71.500 368.517,71.097 368.595,71.705 368.687 " stroke="none" fill="#7c7c74" fill-rule="evenodd"></path></g></svg>